<svg width="27" height="18" viewBox="0 0 27 18" fill="none" xmlns="http://www.w3.org/2000/svg">
<path d="M0.000705053 1.14819C0.147213 0.893352 0.2578 0.607537 0.447275 0.390712C0.729021 0.0675863 1.13403 -0.000698614 1.55454 5.36322e-06C4.88478 0.00282127 8.21525 0.00282127 11.546 5.36322e-06H25.4649C26.275 5.36322e-06 26.8391 0.428023 26.9765 1.14819C26.9953 1.26949 27.0029 1.39228 26.999 1.51497C26.999 6.50476 26.999 11.4943 26.999 16.4836C26.999 17.4199 26.4264 18 25.4917 18C17.4953 18 9.4986 18 1.50171 18C0.731132 18 0.344435 17.7001 0 16.8546L0.000705053 1.14819ZM25.934 16.1809V1.72123C25.8284 1.79726 25.7495 1.85146 25.6734 1.90849C22.1314 4.56483 18.5891 7.22047 15.0467 9.8754C14.0704 10.6068 12.9279 10.6026 11.9524 9.87118L1.30449 1.89159C1.23405 1.83668 1.15657 1.78529 1.06359 1.71912V16.1767C1.16784 16.0528 1.24109 15.969 1.31153 15.8824L6.10121 9.9634C6.36112 9.64309 6.61399 9.31574 6.88588 9.00599C6.92896 8.95561 6.98158 8.91425 7.04071 8.88427C7.09985 8.8543 7.16433 8.83631 7.23045 8.83134C7.29657 8.82636 7.36301 8.83451 7.42597 8.8553C7.48893 8.87609 7.54715 8.90912 7.59729 8.95248C7.69593 9.0351 7.76019 9.15152 7.77752 9.27897C7.79484 9.40643 7.76398 9.53576 7.69097 9.64168C7.65669 9.69275 7.61929 9.74165 7.57898 9.78811L1.98983 16.6871C1.92714 16.7645 1.86728 16.8448 1.79402 16.9398H25.1987C25.1332 16.8525 25.0895 16.7885 25.0409 16.7286L21.6099 12.4921C20.8633 11.5708 20.1171 10.6488 19.3715 9.72616C19.1158 9.40796 19.1954 9.01232 19.5335 8.87082C19.7765 8.76945 19.9948 8.849 20.2153 9.12144L24.2788 14.1387C24.819 14.8061 25.3579 15.472 25.934 16.1809ZM1.93912 1.05104C2.00956 1.11088 2.02998 1.13552 2.05675 1.15593C5.58985 3.80571 9.12365 6.45524 12.6582 9.10454C13.1737 9.49032 13.8443 9.47906 14.3733 9.08272C17.8796 6.45454 21.3857 3.82636 24.8916 1.19818C24.9463 1.16403 25.0041 1.13504 25.0641 1.11159L25 1.04893L1.93912 1.05104Z" fill="#F7BF08"/>
</svg>
