<svg width="25" height="25" viewBox="0 0 25 25" fill="none" xmlns="http://www.w3.org/2000/svg">
<g clip-path="url(#clip0_121_93)">
<path d="M12.1431 0C11.9733 0.101488 11.7694 0 11.5996 0H12.1431Z" fill="#ECECEC"/>
<path d="M24.898 10.9946C24.8127 10.1132 24.6246 9.24462 24.3375 8.40657C23.8997 7.10772 23.2389 5.89441 22.3844 4.82065C21.805 4.05761 21.1317 3.37008 20.3803 2.77403C19.4096 1.98013 18.321 1.34105 17.1535 0.879587C15.9972 0.420818 14.7772 0.141314 13.5359 0.0507812C13.4 0.0507812 13.2641 0.0507812 13.1283 0.0507812H12.1432C11.9564 0.0507812 11.7696 0.0507812 11.5997 0.0507812C11.1189 0.0623318 10.6407 0.124677 10.1731 0.236819C8.85083 0.4897 7.57785 0.952275 6.40274 1.60691C5.07096 2.3742 3.8864 3.37068 2.90411 4.55006C2.17997 5.4225 1.57993 6.39011 1.12084 7.42559C0.491066 8.86383 0.139549 10.4076 0.0848056 11.9757C0.0460685 12.9402 0.125943 13.9059 0.322602 14.8512C0.55691 15.9943 0.951398 17.0988 1.49448 18.1326C1.53638 18.2167 1.55818 18.3093 1.55818 18.4032C1.55818 18.4971 1.53638 18.5897 1.49448 18.6738C1.49448 18.9783 1.32462 19.2828 1.25668 19.5873C0.832092 21.0927 0.424465 22.5981 0.0168563 24.0866C-0.135997 24.6109 -0.118974 24.7125 0.322602 25H0.611296L6.53864 23.4607C6.56704 23.4444 6.59925 23.4359 6.63204 23.4359C6.66483 23.4359 6.69704 23.4444 6.72544 23.4607L7.23493 23.6806C8.77712 24.3877 10.4463 24.7788 12.1432 24.8308C12.825 24.8367 13.5063 24.7915 14.1813 24.6955C15.3532 24.5433 16.4972 24.2243 17.578 23.7483C19.2167 23.013 20.6765 21.9341 21.8579 20.5852C22.7403 19.5761 23.4568 18.4344 23.9809 17.2023C24.6292 15.677 24.9642 14.0379 24.9659 12.3816C24.968 11.9184 24.9453 11.4554 24.898 10.9946ZM24.4564 13.092C24.3735 14.4365 24.0635 15.7575 23.5393 16.9993C23.0207 18.1958 22.3157 19.3032 21.4503 20.2808C20.0065 21.8769 18.1499 23.0472 16.0835 23.6637C15.2497 23.9251 14.3897 24.0952 13.5189 24.1711C11.4795 24.3454 9.42985 23.9838 7.57462 23.1224C7.38536 23.0493 7.20339 22.9588 7.03113 22.8518C6.97336 22.8222 6.90933 22.8067 6.84434 22.8067C6.77934 22.8067 6.71526 22.8222 6.65749 22.8518L0.866041 24.3573C0.781123 24.3573 0.645282 24.4757 0.577347 24.3573C0.509413 24.2389 0.577347 24.1374 0.577347 24.0359C1.06987 22.226 1.56241 20.4161 2.07192 18.6062C2.12577 18.4985 2.15376 18.3798 2.15376 18.2594C2.15376 18.1391 2.12577 18.0205 2.07192 17.9128C1.44972 16.7499 1.02501 15.4925 0.815092 14.1915C0.701722 13.3791 0.656299 12.5587 0.679245 11.7388C0.73496 10.4375 1.0165 9.1556 1.51143 7.94994C1.96019 6.81159 2.58479 5.7501 3.36265 4.80382C4.31765 3.67356 5.46802 2.72257 6.75939 1.99592C7.9386 1.32396 9.22576 0.860422 10.5638 0.625825C11.1829 0.492886 11.816 0.436121 12.4489 0.456719C14.4835 0.41343 16.4952 0.891019 18.2913 1.84374C19.517 2.51013 20.6197 3.37951 21.5522 4.41471C22.588 5.56714 23.3846 6.91238 23.896 8.37281C24.1741 9.17377 24.3676 10.0014 24.4734 10.8423C24.5406 11.591 24.5349 12.3444 24.4564 13.092Z" fill="#FBD15B"/>
<path d="M22.3337 10.9608C22.1104 9.06518 21.2899 7.28874 19.99 5.88637C18.9073 4.6158 17.511 3.64815 15.9385 3.07867C14.3661 2.50919 12.6718 2.35755 11.0226 2.63876C9.77686 2.80492 8.57733 3.21842 7.49501 3.85472C6.41268 4.49102 5.4696 5.33718 4.72163 6.3431C3.92566 7.34624 3.3372 8.4966 2.9903 9.7276C2.64339 10.9586 2.54493 12.2458 2.70056 13.5149C2.87288 15.0316 3.40244 16.4863 4.24609 17.7606C4.2834 17.834 4.30284 17.9151 4.30284 17.9974C4.30284 18.0797 4.2834 18.1608 4.24609 18.2342C4.04228 18.877 3.88942 19.5197 3.7026 20.1624C3.51578 20.8052 3.44782 21.1097 3.31195 21.5833C3.3412 21.5969 3.37312 21.604 3.4054 21.604C3.43768 21.604 3.46955 21.5969 3.4988 21.5833C4.60274 21.2958 5.70668 21.0251 6.89554 20.7206C6.96736 20.6874 7.04563 20.6702 7.12484 20.6702C7.20405 20.6702 7.28226 20.6874 7.35408 20.7206C9.13131 21.8167 11.2152 22.3149 13.2984 22.1415C15.2534 22.0229 17.123 21.3017 18.6482 20.0779C20.0242 19.0246 21.0918 17.6235 21.7399 16.0201C22.388 14.4168 22.5931 12.6698 22.3337 10.9608ZM16.1856 18.065H15.8459C15.1255 18.0388 14.4143 17.896 13.74 17.6421C11.3793 16.8612 9.35514 15.3046 7.99947 13.2274C7.48071 12.5741 7.05759 11.8508 6.74269 11.0792C6.48127 10.4509 6.41112 9.76003 6.54097 9.09237C6.67082 8.4247 6.99493 7.8098 7.47298 7.32418C7.59048 7.18831 7.73664 7.07992 7.90104 7.00683C8.06545 6.93373 8.24405 6.89772 8.42406 6.90132H8.67881C8.88353 6.86108 9.09596 6.9022 9.27055 7.01601C9.44515 7.12983 9.56805 7.30726 9.61294 7.51022C9.90166 8.22064 10.1904 8.93108 10.4961 9.6415C10.5451 9.73251 10.5708 9.83418 10.5708 9.93748C10.5708 10.0408 10.5451 10.1425 10.4961 10.2335C10.2675 10.5755 10.0179 10.9032 9.74879 11.2146C9.6826 11.2959 9.64648 11.3974 9.64648 11.5021C9.64648 11.6068 9.6826 11.7083 9.74879 11.7896C10.6909 13.3992 12.1511 14.6449 13.8928 15.3248C13.9914 15.3661 14.1013 15.3718 14.2037 15.3409C14.306 15.31 14.3943 15.2446 14.4533 15.1557C14.759 14.8005 15.0647 14.4453 15.3364 14.0732C15.6082 13.701 15.6591 13.7349 15.9988 13.8871C16.848 14.2254 17.6972 14.6483 18.4784 15.0542C18.5463 15.0928 18.6015 15.1499 18.6377 15.2189C18.6738 15.2879 18.6893 15.3658 18.6822 15.4432C18.6959 15.7798 18.6416 16.1157 18.5227 16.431C18.4038 16.7464 18.2226 17.0348 17.9898 17.2793C17.7571 17.5237 17.4775 17.7191 17.1676 17.8541C16.8578 17.9891 16.5238 18.0608 16.1856 18.065Z" fill="#F7BF08"/>
</g>
<defs>
<clipPath id="clip0_121_93">
<rect width="25" height="25" fill="white"/>
</clipPath>
</defs>
</svg>
