<svg width="630" height="592" viewBox="0 0 630 592" fill="none" xmlns="http://www.w3.org/2000/svg">
<path d="M275.154 507.636L141.288 486.992L134.295 330.708C133.596 315.453 142.663 309.178 156.836 305.166C212.778 289.304 348.532 243.585 372.005 237.52C397.482 230.872 563.282 203.884 610.949 198.193C613.129 197.835 615.363 198.013 617.458 198.712C619.554 199.411 621.448 200.61 622.977 202.205L525.754 486.129L275.154 507.636Z" fill="#F7BF08"/>
<g opacity="0.3">
<path opacity="0.3" d="M176.788 403.951C176.788 403.951 175.04 355.247 175.25 344.89C175.25 338.965 175.902 332.574 179.585 328.048C183.268 323.523 189.375 321.774 194.736 319.371C204.806 314.986 215.07 311.098 225.528 307.708L236.74 285.688L241.891 362.664L176.788 403.951Z" fill="black"/>
</g>
<g opacity="0.3">
<path opacity="0.3" d="M402.494 262.362L313.755 290.61L299.116 274.002L410.139 241.672L402.494 262.362Z" fill="black"/>
</g>
<path d="M135.274 320.538C137.365 321.12 139.502 321.518 141.661 321.727L157.092 324.176L172.5 326.905C174.604 327.419 176.748 327.747 178.91 327.885C176.918 327.064 174.848 326.447 172.733 326.042C168.84 325.109 163.409 323.99 157.372 322.963C151.335 321.937 145.717 321.261 141.824 320.864C139.657 320.541 137.463 320.432 135.274 320.538Z" fill="#263238"/>
<path d="M186.089 454.336C186.498 454.494 186.932 454.573 187.371 454.569L191.054 455.012L204.596 456.365L249.35 460.354C253.733 460.704 257.952 461.147 262.147 461.403C264.264 461.571 266.391 461.26 268.371 460.494C269.331 460.075 270.198 459.47 270.923 458.713C271.647 457.956 272.214 457.063 272.59 456.085C273.275 454.308 273.729 452.45 273.942 450.557C274.222 448.784 274.478 447.058 274.734 445.378C275.247 442.066 275.713 438.941 276.156 436.048L278.138 422.566C278.324 421.073 278.487 419.86 278.604 418.88C278.65 418.446 278.65 418.008 278.604 417.574C278.441 417.978 278.331 418.401 278.277 418.833L277.578 422.472C276.995 425.808 276.18 430.357 275.247 435.908C274.758 438.754 274.245 441.856 273.685 445.239C273.406 446.895 273.103 448.621 272.823 450.394C272.593 452.19 272.147 453.952 271.494 455.642C271.175 456.489 270.685 457.261 270.056 457.911C269.426 458.56 268.67 459.074 267.835 459.421C266.008 460.114 264.047 460.385 262.101 460.214C258.045 459.934 253.733 459.491 249.374 459.141L204.596 455.502L191.03 454.546L187.324 454.336H186.089Z" fill="#263238"/>
<path d="M554.89 591.376L525.893 520.045H496.267L537.478 591.376H554.89Z" fill="#AE7461"/>
<path d="M307.415 591.376L307.531 507.262H277.905L290.003 591.376H307.415Z" fill="#AE7461"/>
<path d="M174.364 575.094L174.48 490.981H144.854L156.952 575.094H174.364Z" fill="#AE7461"/>
<path d="M419.323 76.6172C424.148 73.5615 430.301 72.6751 434.194 68.4065C438.087 64.1378 438.623 57.4665 439.299 51.4717C439.776 44.9145 441.568 38.5206 444.567 32.671C446.044 29.8124 448.15 27.3262 450.726 25.3991C453.302 23.4719 456.28 22.1541 459.438 21.5445C464.1 20.9147 468.995 22.3609 473.424 20.7514C478.482 18.9086 481.489 13.7536 485.218 9.69485C488.643 6.05101 492.904 3.2971 497.631 1.67137C502.359 0.0456412 507.411 -0.402934 512.351 0.36444C515.793 0.838731 519.077 2.11049 521.942 4.07854C524.807 6.04658 527.174 8.65659 528.854 11.7009C532 18.0456 530.602 26.9094 524.821 30.7349L543.469 70.3892C546.247 76.2212 547.812 82.5575 548.068 89.0133C548.325 95.4691 547.267 101.91 544.96 107.944C542.68 113.869 539.166 119.242 534.653 123.706C530.141 128.17 524.731 131.623 518.784 133.836C513.469 135.749 507.572 136.705 503.376 140.601C500.183 143.586 498.435 147.855 495.917 151.494C493.4 155.133 489.414 158.375 485.195 157.512C481.978 156.859 479.414 153.943 476.151 153.733C472.888 153.523 470.091 156.066 467.13 157.489C463.535 159.203 459.446 159.577 455.6 158.542C451.753 157.507 448.403 155.132 446.152 151.844C443.821 148.438 442.539 143.96 438.973 142.093C435.406 140.227 431.071 141.86 427.061 141.604C419.136 141.137 412.913 131.737 415.407 123.829C416.339 120.773 418.344 117.904 418.134 114.685C417.924 111.466 415.174 108.504 413.262 105.588C407.272 96.4443 410.232 82.3088 419.323 76.6172Z" fill="black"/>
<path d="M463.703 109.414C462.422 107.99 460.826 106.888 459.041 106.195H459.438L458.435 106.031C457.827 105.844 457.186 105.789 456.555 105.87C455.924 105.95 455.318 106.164 454.776 106.498C452.747 107.318 451.089 108.853 450.114 110.813C449.335 112.594 449.037 114.548 449.25 116.48C449.463 118.412 450.179 120.255 451.326 121.823C452.234 123.176 453.513 124.238 455.011 124.879C456.508 125.521 458.159 125.715 459.764 125.439C461.228 124.968 462.543 124.122 463.578 122.984C464.613 121.846 465.331 120.457 465.661 118.954C466.125 117.323 466.19 115.605 465.849 113.944C465.508 112.283 464.772 110.729 463.703 109.414Z" fill="#455A64"/>
<path d="M538.97 166.236L540.252 58.7495C540.485 53.5711 542.769 46.3167 537.921 45.6403L487.573 30.7583C471.256 28.4257 459.998 49.0226 458.506 66.0039C456.851 84.8513 455.546 107.991 457.317 121.986C460.86 150.561 483.214 154.876 483.214 154.876C483.214 154.876 483.377 162.037 483.214 172.324L478.552 210.065L538.97 166.236Z" fill="#47291C"/>
<path d="M464.426 91.1027C464.38 92.0292 464.694 92.9376 465.302 93.6376C465.911 94.3376 466.766 94.775 467.689 94.8582C468.132 94.9 468.578 94.854 469.003 94.723C469.427 94.5919 469.822 94.3784 470.164 94.0946C470.506 93.8108 470.789 93.4622 470.996 93.0689C471.203 92.6756 471.331 92.2452 471.372 91.8024V91.6858C471.412 90.7607 471.096 89.8556 470.489 89.1568C469.882 88.4581 469.03 88.0191 468.109 87.9304C467.213 87.8526 466.323 88.1327 465.633 88.7096C464.943 89.2866 464.509 90.1133 464.426 91.0094V91.1027Z" fill="#28130C"/>
<path d="M462.818 78.0867C463.237 78.5765 465.941 76.6172 469.811 76.7338C473.68 76.8504 476.244 78.9031 476.664 78.4366C477.083 77.9701 476.454 77.3636 475.288 76.4072C473.703 75.2168 471.791 74.5411 469.811 74.4712C467.851 74.4205 465.928 75.01 464.333 76.1506C463.028 77.107 462.608 77.9467 462.818 78.0867Z" fill="#28130C"/>
<path d="M497.106 92.0824C497.048 93.0081 497.354 93.9197 497.96 94.6217C498.566 95.3238 499.422 95.7604 500.346 95.8379C500.788 95.886 501.236 95.8445 501.662 95.7157C502.087 95.5869 502.483 95.3735 502.825 95.0883C503.166 94.803 503.447 94.4518 503.65 94.0556C503.853 93.6594 503.974 93.2262 504.005 92.7822C504.018 92.7285 504.018 92.6725 504.005 92.6189C504.058 91.6946 503.749 90.7863 503.144 90.0856C502.54 89.3849 501.687 88.9466 500.765 88.8634C499.87 88.7856 498.979 89.0657 498.289 89.6427C497.599 90.2196 497.165 91.0464 497.083 91.9425L497.106 92.0824Z" fill="#28130C"/>
<path d="M499.67 79.9762C500.09 80.466 502.794 78.5067 506.523 78.6233C510.253 78.7399 512.98 80.7926 513.516 80.3261C514.052 79.8596 513.306 79.2531 512.118 78.2967C510.544 77.0841 508.625 76.4059 506.64 76.3607C504.681 76.3201 502.762 76.9087 501.162 78.0402C499.88 78.9265 499.461 79.7663 499.67 79.9762Z" fill="#28130C"/>
<path d="M485.265 108.574C483.305 107.895 481.27 107.456 479.204 107.268C478.249 107.128 477.363 106.894 477.2 106.218C477.159 105.19 477.409 104.171 477.922 103.279L480.976 95.7446C483.732 89.3412 486.068 82.7649 487.969 76.0574C484.708 82.1984 481.896 88.5675 479.554 95.1148C478.528 97.7506 477.573 100.27 476.64 102.672C476.014 103.868 475.801 105.238 476.034 106.568C476.15 106.926 476.35 107.251 476.618 107.515C476.885 107.779 477.213 107.974 477.573 108.084C478.094 108.247 478.635 108.341 479.181 108.364C481.188 108.725 483.237 108.796 485.265 108.574Z" fill="#28130C"/>
<path d="M483.051 154.876C495.349 155.324 507.508 152.144 518.015 145.732C518.015 145.732 510.136 166.726 483.051 163.367V154.876Z" fill="#28130C"/>
<path d="M491.814 113.192C492.811 113.234 493.782 113.522 494.64 114.031C495.498 114.54 496.217 115.253 496.732 116.108C497.248 117.092 497.496 118.194 497.451 119.303C497.406 120.413 497.07 121.491 496.476 122.429C495.794 123.375 494.836 124.084 493.734 124.461C492.631 124.837 491.439 124.86 490.322 124.529C489.989 124.458 489.667 124.34 489.367 124.179C483.796 121.846 485.754 112.819 491.698 113.169L491.814 113.192Z" fill="#28130C"/>
<path d="M496.22 111.606C495.614 111.606 495.498 115.805 491.931 118.721C488.365 121.636 484.053 121.053 484.006 121.613C483.959 122.173 484.938 122.476 486.78 122.593C489.174 122.703 491.524 121.922 493.376 120.4C495.212 118.908 496.411 116.773 496.733 114.429C496.943 112.656 496.5 111.606 496.22 111.606Z" fill="#1E0D08"/>
<path d="M499.623 66.587C499.973 67.66 503.725 67.2635 508.108 67.9399C512.49 68.6164 516.033 69.9926 516.639 69.0596C516.895 68.593 516.313 67.59 514.914 66.517C513.043 65.2434 510.892 64.443 508.644 64.1844C506.398 63.8397 504.102 64.0479 501.954 64.7909C500.322 65.2574 499.483 66.0738 499.623 66.587Z" fill="#28130C"/>
<path d="M464.519 62.5982C465.149 63.5079 467.759 62.5982 470.859 62.5982C473.96 62.5982 476.594 63.368 477.223 62.4583C477.503 62.0151 477.223 61.1054 475.987 60.2423C474.495 59.17 472.697 58.6058 470.859 58.6328C469.02 58.6142 467.222 59.1865 465.731 60.2656C464.612 61.2453 464.24 62.155 464.519 62.5982Z" fill="#28130C"/>
<path d="M440.021 60.1257C441.129 55.8377 443.66 52.054 447.2 49.3957C449.282 48.2844 451.298 47.0539 453.238 45.7103C457.177 42.4213 458.086 36.6598 460.51 32.0412C462.054 29.1102 464.282 26.5956 467.005 24.7112C469.728 22.8268 472.866 21.6284 476.151 21.2179C481.535 20.6581 487.083 22.3376 492.327 20.9614C496.197 19.935 499.6 17.3225 503.516 16.5294C511.185 15.0132 518.294 20.7514 523.842 26.4429C523.842 32.1578 519.506 35.9833 515.287 39.6455C513.198 41.4477 510.731 42.7566 508.068 43.4753C505.405 44.194 502.614 44.3042 499.903 43.7975C495.731 43.0044 491.139 40.7885 487.526 43.1211C483.913 45.4537 483.563 51.5418 480.183 54.5975C475.358 58.9594 467.689 54.8774 461.536 56.7668C456.874 58.2363 453.844 62.9482 450.697 66.9136C447.55 70.879 442.865 74.6579 438.133 73.1883C438.28 68.7778 438.913 64.397 440.021 60.1257Z" fill="black"/>
<path d="M497.502 35.8899C500.929 34.8636 507.945 32.5543 509.786 29.4519C513.795 22.7107 520.835 18.1155 528.037 18.512C531.83 18.8845 535.399 20.477 538.21 23.0507C541.022 25.6245 542.924 29.0408 543.631 32.7876C548.17 32.996 552.565 34.4458 556.337 36.9792C560.11 39.5125 563.116 43.0326 565.029 47.1564C565.548 48.2316 565.999 49.3378 566.381 50.4687C567.737 52.9917 568.55 55.7711 568.767 58.6276C568.983 61.4842 568.6 64.3545 567.64 67.0535C566.451 70.2958 564.447 73.888 566.032 76.9204C567.617 79.9528 571.766 80.1161 574.959 81.2591C577.757 82.4219 580.069 84.5126 581.508 87.1801C582.947 89.8476 583.425 92.9294 582.861 95.9078C582.11 97.9672 581.777 100.156 581.882 102.346C582.642 104.474 583.906 106.387 585.565 107.921C587.308 110.163 588.47 112.801 588.95 115.6C589.43 118.399 589.212 121.274 588.316 123.969C587.41 126.604 585.836 128.959 583.749 130.803C581.661 132.648 579.13 133.918 576.404 134.489C573.916 134.602 571.472 135.188 569.202 136.215C566.871 137.755 565.705 140.88 564.004 143.213C562.383 145.459 560.096 147.136 557.468 148.007C554.841 148.878 552.005 148.898 549.365 148.065C548.315 147.702 547.325 147.183 546.429 146.525C545.748 147.835 544.686 148.907 543.383 149.598C542.08 150.29 540.598 150.569 539.133 150.397L538.853 90.6828C538.56 91.4113 538.088 92.0541 537.481 92.5516C536.874 93.049 536.151 93.3851 535.38 93.5286C526.056 95.6979 524.844 75.9407 526.895 70.5757C523.369 67.6122 520.236 64.2102 517.571 60.4522C514.614 54.4284 513.159 47.7776 513.329 41.0683C510.112 41.2083 495.964 36.3331 497.502 35.8899Z" fill="black"/>
<path d="M536.359 95.488C536.662 89.3999 543.771 88.117 548.829 91.1493C551.603 92.8288 553.724 96.1878 553.491 102.626C552.815 119.817 536.405 115.572 536.382 115.082C536.359 114.592 535.986 102.602 536.359 95.488Z" fill="#47291C"/>
<path d="M541.604 108.784C541.849 108.958 542.106 109.114 542.373 109.25C542.701 109.422 543.061 109.523 543.43 109.547C543.8 109.571 544.17 109.518 544.517 109.39C546.289 108.807 547.851 105.985 548.06 102.882C548.178 101.415 547.963 99.9397 547.431 98.567C547.288 98.0448 547.026 97.5626 546.666 97.1581C546.306 96.7535 545.858 96.4375 545.357 96.2344C545.027 96.1326 544.673 96.1519 544.356 96.2887C544.04 96.4256 543.783 96.671 543.632 96.9808C543.399 97.4473 543.492 97.7973 543.399 97.8206C543.305 97.8439 543.049 97.5174 543.212 96.8176C543.344 96.4101 543.586 96.0469 543.911 95.7679C544.378 95.4384 544.956 95.3044 545.52 95.3947C546.195 95.5855 546.813 95.9411 547.318 96.4296C547.822 96.9181 548.197 97.5244 548.41 98.1938C549.042 99.721 549.313 101.373 549.203 103.022C548.97 106.498 547.151 109.67 544.727 110.277C544.278 110.391 543.809 110.4 543.356 110.303C542.904 110.206 542.479 110.005 542.117 109.717C541.627 109.11 541.557 108.807 541.604 108.784Z" fill="#28130C"/>
<path d="M534.028 116.575C534.856 114.612 536.422 113.054 538.387 112.236C539.656 111.718 541.045 111.564 542.397 111.793L543.049 112.003C544.833 112.696 546.43 113.799 547.711 115.222C548.756 116.545 549.467 118.101 549.783 119.758C550.1 121.414 550.013 123.123 549.529 124.739C549.195 126.234 548.478 127.615 547.448 128.748C546.418 129.881 545.111 130.726 543.655 131.2C542.034 131.496 540.362 131.306 538.849 130.654C537.335 130.003 536.048 128.919 535.147 127.538C534.015 125.97 533.315 124.131 533.119 122.206C532.922 120.282 533.236 118.339 534.028 116.575Z" fill="#455A64"/>
<path d="M153.898 463.176C153.873 462.569 153.78 461.966 153.618 461.38C153.362 460.097 153.036 458.418 152.639 456.295C151.303 450.095 150.523 443.787 150.308 437.448C150.241 433.092 150.751 428.747 151.824 424.525C153.085 419.707 155.331 415.204 158.42 411.299C161.778 406.958 166.571 403.957 171.94 402.832C177.534 401.712 183.594 402.645 189.585 403.415L251.984 411.322L270.911 413.655L276.086 414.192C276.682 414.262 277.285 414.262 277.881 414.192C277.301 414.028 276.708 413.911 276.109 413.842L270.981 413.049L252.101 410.413L189.771 402.202C183.823 401.079 177.735 400.898 171.73 401.666C166.097 402.854 161.077 406.023 157.581 410.599C154.418 414.639 152.131 419.294 150.868 424.268C149.795 428.575 149.332 433.012 149.493 437.448C149.746 443.834 150.636 450.179 152.15 456.388C152.639 458.581 153.059 460.284 153.362 461.427C153.484 462.026 153.664 462.612 153.898 463.176Z" fill="#263238"/>
<path d="M559.178 160.428L539.878 161.804C539.878 161.804 543.911 151.424 538.759 153.546C522.023 160.544 474.985 153.756 474.985 165.956C474.985 169.618 478.155 171.181 479.017 176.942C479.017 176.942 428.226 197.446 418.669 220.376C409.112 243.305 390.698 291.497 394.777 299.218C398.856 306.938 484.472 375.307 496.22 370.898C507.967 366.49 518.97 335.233 518.97 335.233L554.68 215.314L559.178 160.428Z" fill="#455A64"/>
<path d="M337.973 160.824L392.237 160.428L388.415 190.332C388.415 190.332 384.988 205.074 376.76 205.144L353.241 205.33C350.314 203.589 347.773 201.27 345.769 198.515C343.766 195.761 342.342 192.627 341.586 189.305L337.973 160.824Z" fill="#E0E0E0"/>
<path d="M337.973 160.824C338.069 161.128 338.131 161.44 338.16 161.757C338.242 162.65 338.374 163.538 338.556 164.416C338.882 166.749 339.372 170.155 339.954 174.353C340.537 178.552 341.283 183.684 342.099 189.562C342.867 192.748 344.265 195.747 346.211 198.383C348.157 201.019 350.61 203.239 353.427 204.91H353.217L372.028 204.747H377.04C378.666 204.664 380.207 203.993 381.375 202.858C383.846 200.454 385.694 197.483 386.76 194.204C387.226 192.921 387.645 191.615 387.972 190.355C389.324 179.765 390.629 169.758 391.841 160.428L392.284 160.917H341.936L353.054 160.731L392.284 160.194H392.773V160.684C391.585 170.015 390.442 180.022 388.974 190.588C388.628 191.932 388.208 193.256 387.715 194.554C386.601 197.986 384.665 201.093 382.074 203.604C380.735 204.85 379.005 205.592 377.179 205.703H353.217C350.286 203.985 347.739 201.682 345.735 198.937C343.73 196.192 342.31 193.065 341.563 189.749C340.724 183.8 340.164 178.575 339.628 174.283C339.092 169.991 338.742 166.726 338.463 164.346L338.183 161.757C338.09 161.452 338.019 161.14 337.973 160.824Z" fill="#263238"/>
<path d="M388.297 175.823L389.09 175.636C388.577 175.753 389.23 175.636 389.323 175.636H391.304L392.237 175.846L393.006 176.103C393.355 176.103 393.006 176.103 392.866 176.103L393.355 176.336C393.876 176.612 394.382 176.915 394.871 177.246L395.174 177.526L395.85 178.179C396.013 178.342 396.362 178.809 396.036 178.342C396.222 178.622 396.409 178.879 396.572 179.159L396.968 179.882C397.155 180.185 396.968 179.882 396.968 179.742C396.968 179.602 396.968 180.092 397.155 180.255C397.341 180.418 397.341 180.885 397.411 181.188C397.481 181.491 397.598 182.098 397.411 181.701C397.225 181.304 397.411 182.121 397.411 182.238C397.435 182.564 397.435 182.891 397.411 183.217V184.407L397.201 185.223C397.201 185.433 396.829 186.18 397.201 185.62C396.956 186.163 396.668 186.686 396.339 187.183L396.106 187.533C396.106 187.533 396.432 187.159 396.106 187.416L395.36 188.209C395.36 188.209 394.684 188.769 394.964 188.559L394.498 188.862L393.798 189.259L393.425 189.445C393.822 189.235 393.635 189.445 393.425 189.445C392.825 189.662 392.21 189.834 391.584 189.958H388.95L387.901 189.632C388.367 189.818 387.528 189.445 387.528 189.445C386.769 189.023 385.875 188.915 385.037 189.147C384.2 189.378 383.487 189.929 383.053 190.682C382.631 191.437 382.525 192.329 382.756 193.163C382.987 193.997 383.538 194.706 384.288 195.137C387.429 196.741 391.059 197.099 394.452 196.138C397.845 195.178 400.75 192.971 402.586 189.958C404.342 186.816 404.865 183.132 404.054 179.625C403.211 176.182 401.041 173.214 398.017 171.368C396.371 170.345 394.531 169.677 392.613 169.404C390.695 169.13 388.741 169.259 386.875 169.781C386.458 169.895 386.066 170.089 385.723 170.354C385.381 170.619 385.094 170.948 384.878 171.324C384.663 171.7 384.524 172.115 384.468 172.544C384.413 172.974 384.443 173.41 384.556 173.828C384.669 174.247 384.864 174.638 385.128 174.981C385.393 175.324 385.722 175.612 386.098 175.827C386.473 176.043 386.888 176.182 387.317 176.237C387.746 176.293 388.182 176.263 388.6 176.149L388.297 175.823Z" fill="#E0E0E0"/>
<path d="M388.297 175.823C387.955 176.008 387.564 176.081 387.178 176.033C386.442 176.009 385.733 175.746 385.161 175.282C384.588 174.818 384.182 174.18 384.005 173.464C383.828 172.748 383.89 171.994 384.181 171.317C384.472 170.639 384.976 170.076 385.617 169.712C386.611 169.235 387.687 168.95 388.787 168.872C389.987 168.732 391.2 168.732 392.4 168.872C395.177 169.282 397.776 170.489 399.882 172.347C402.329 174.498 403.911 177.466 404.334 180.698C404.847 184.26 404.016 187.886 402.003 190.868C400.895 192.442 399.474 193.77 397.83 194.77C396.186 195.769 394.353 196.418 392.446 196.676C390.759 196.941 389.038 196.901 387.365 196.56C386.57 196.402 385.79 196.176 385.034 195.883L383.892 195.37C383.462 195.198 383.084 194.917 382.796 194.554C382.18 193.895 381.824 193.035 381.792 192.134C381.761 191.232 382.057 190.35 382.626 189.65C383.195 188.95 383.997 188.479 384.886 188.326C385.774 188.173 386.688 188.347 387.458 188.816L386.829 189.212C386.833 189.11 386.872 189.012 386.94 188.935C387.008 188.859 387.101 188.808 387.202 188.792H387.621C387.621 188.559 387.971 189.492 387.458 189.562H386.852C386.642 188.582 387.528 188.862 387.248 188.839H387.854C388.292 189.002 388.745 189.119 389.206 189.189L389.439 189.305C389.673 189.422 389.603 189.305 389.579 189.702C389.556 190.098 389.23 190.029 389.206 190.029H388.647C388.588 189.951 388.557 189.857 388.557 189.76C388.557 189.663 388.588 189.569 388.647 189.492C388.833 189.212 388.95 189.282 388.973 189.259H390.046C390.503 189.305 390.964 189.305 391.421 189.259V190.098H391.048C391.009 190.121 390.965 190.133 390.92 190.133C390.875 190.133 390.83 190.121 390.791 190.098C390.745 190.029 390.721 189.948 390.721 189.865C390.721 189.782 390.745 189.701 390.791 189.632V189.492H390.978L391.328 189.375L392.05 189.189L392.749 189.002H393.052C392.866 188.816 393.052 189.795 393.286 189.679L392.913 188.956C393.239 188.816 393.542 188.629 393.845 188.466L394.265 188.186H394.754C394.94 188.372 394.754 188.722 394.754 188.722C394.715 188.745 394.671 188.757 394.626 188.757C394.581 188.757 394.537 188.745 394.498 188.722C394.416 188.718 394.34 188.685 394.28 188.629C394.22 188.574 394.182 188.5 394.171 188.419C394.031 188.186 394.334 187.882 394.171 187.976C394.458 187.786 394.71 187.55 394.917 187.276L395.267 186.926C395.267 186.926 395.663 186.926 395.756 187.159C395.85 187.393 395.756 187.369 395.756 187.416L395.593 187.603L394.987 187.136C395.385 186.547 395.744 185.931 396.059 185.293L396.712 185.597V185.713H396.502C396.223 185.713 396.153 185.317 396.153 185.317V185.06C396.221 184.918 396.275 184.769 396.316 184.617C396.361 184.299 396.439 183.986 396.549 183.684V183.427L396.689 183.217C396.74 183.194 396.796 183.182 396.852 183.182C396.908 183.182 396.964 183.194 397.015 183.217H397.155C397.177 183.26 397.189 183.308 397.189 183.357C397.189 183.406 397.177 183.454 397.155 183.497V183.754C397.388 184.034 396.153 183.917 396.479 183.754V183.544C396.456 183.476 396.456 183.402 396.479 183.334V182.401C396.502 182.106 396.502 181.81 396.479 181.515V181.258C396.49 181.151 396.54 181.051 396.619 180.978C396.731 180.933 396.856 180.933 396.968 180.978V181.375V181.608C396.968 181.724 396.968 181.608 396.782 181.748C396.707 181.768 396.628 181.764 396.556 181.734C396.484 181.704 396.424 181.652 396.386 181.584V181.071C396.265 180.523 396.102 179.984 395.896 179.462L396.502 179.089V179.205C396.497 179.279 396.469 179.349 396.424 179.407C396.378 179.466 396.316 179.509 396.246 179.532C395.989 179.532 396.036 179.532 396.013 179.532C395.94 179.45 395.885 179.355 395.85 179.252L395.57 178.762L395.803 178.342L396.269 178.016V178.156C396.292 178.199 396.303 178.247 396.303 178.295C396.303 178.344 396.292 178.392 396.269 178.435C395.966 178.809 395.756 178.435 395.826 178.435L395.477 178.062C395.244 177.829 395.01 177.596 394.754 177.386L395.104 177.013H395.244C394.661 177.782 395.01 177.199 394.894 177.386L394.568 177.199L393.985 176.826L392.889 176.219L393.076 175.823H393.495C393.495 175.823 393.495 176.079 393.495 176.149H393.309L392.913 176.01L392.19 175.8L391.537 175.636H391.211C391.374 175.636 390.931 175.823 391.211 175.31V175.636H389.043V175.473H389.323V175.59H389.136C388.851 175.683 388.552 175.731 388.251 175.73C388.523 175.59 388.813 175.488 389.113 175.426H389.276H391.211V175.753H390.955C391.234 175.24 390.815 175.473 390.955 175.426H391.351L392.05 175.566L392.796 175.776L393.192 175.893C393.052 176.453 393.052 176.243 393.006 176.266H392.796L392.983 175.87C393.382 176.034 393.764 176.237 394.125 176.476L394.754 176.826L395.08 177.013V177.199L394.894 177.059L395.104 176.756L395.85 177.432L396.246 177.806L396.409 178.039H396.129L396.595 177.712C396.782 178.016 397.015 178.295 397.201 178.622L397.481 179.112C397.481 179.112 397.644 179.275 397.481 179.392L397.295 179.532H397.108V179.368L397.691 179.159C397.901 179.695 398.064 180.255 398.227 180.838V181.211H398.111V183.544H397.435V183.381H397.994V183.754C397.944 184.086 397.866 184.414 397.761 184.734C397.731 184.911 397.676 185.084 397.598 185.247V185.457C396.665 185.083 396.992 185.177 396.968 185.13V185.013L397.621 185.317C397.299 186.013 396.925 186.683 396.502 187.323L395.896 186.856L396.059 186.67H396.199C396.199 186.786 396.362 186.67 396.409 186.833V187.089L396.059 187.463C395.832 187.733 395.574 187.976 395.29 188.186C395.127 188.046 395.104 187.929 395.057 187.952C395.01 187.976 395.057 187.952 395.057 187.836L394.917 187.626V187.999C394.917 188.053 394.932 188.106 394.961 188.152C394.99 188.197 395.031 188.233 395.08 188.256C394.939 188.371 394.782 188.465 394.614 188.536L393.658 189.072L393.286 188.349H393.752C394.078 188.232 394.171 189.212 393.985 189.025L393.612 189.165L392.866 189.375L392.143 189.585H391.84C391.84 189.585 391.84 189.772 391.84 189.235V188.792V189.632C391.36 189.679 390.876 189.679 390.395 189.632H389.509C389.486 189.493 389.486 189.351 389.509 189.212V188.839H389.766V189.189V189.375C389.789 189.443 389.789 189.517 389.766 189.585C389.267 189.513 388.775 189.396 388.297 189.235H387.738V189.095C387.762 189.012 387.762 188.923 387.738 188.839L387.878 188.419H388.018C388.018 188.536 388.018 188.699 388.018 188.769L387.831 189.095C387.902 189.092 387.97 189.068 388.028 189.026C388.086 188.985 388.131 188.928 388.157 188.862V188.746H387.831L387.528 189.142C386.945 188.786 386.252 188.652 385.578 188.765C384.904 188.878 384.293 189.23 383.857 189.757C383.421 190.284 383.189 190.95 383.204 191.634C383.219 192.318 383.48 192.973 383.938 193.481C384.48 193.975 385.125 194.341 385.827 194.554C386.584 194.831 387.364 195.042 388.157 195.184C389.7 195.451 391.277 195.451 392.819 195.184C394.599 194.953 396.31 194.352 397.843 193.42C399.377 192.488 400.698 191.245 401.724 189.772C403.654 186.982 404.485 183.575 404.054 180.208C403.68 177.173 402.214 174.378 399.929 172.347C397.966 170.573 395.542 169.393 392.936 168.942C390.777 168.573 388.56 168.774 386.502 169.525C386.134 169.741 385.813 170.03 385.56 170.375C385.308 170.721 385.129 171.114 385.034 171.531C384.87 172.247 384.987 172.998 385.36 173.63C385.598 174.065 385.931 174.44 386.335 174.727C386.739 175.014 387.203 175.205 387.691 175.286L388.297 175.823Z" fill="#263238"/>
<path d="M509.95 270.993C509.693 270.41 464.962 204.63 464.962 204.63L438.46 225.927L475.219 303.999C475.219 303.999 506.173 292.686 510.183 271.693" fill="#28130C"/>
<path d="M425.639 162.34C425.639 162.34 443.215 173.07 447.947 179.788C452.678 186.506 465.056 204.747 465.056 204.747L438.46 225.927L432.469 214.941C432.469 214.941 404.801 211.092 401.771 207.22C398.74 203.348 400.722 197.493 400.722 197.493C400.722 197.493 396.06 193.177 396.479 189.725C396.479 189.725 384.825 188.396 384.335 184.827C383.846 181.258 385.338 177.292 389.72 177.012C394.102 176.733 403.985 177.479 400.768 175.426C397.552 173.374 385.71 175.24 384.755 170.131C383.799 165.023 386.433 161.337 391.748 162.154C397.062 162.97 398.904 163.39 398.904 163.39C398.904 163.39 391.025 160.871 391.165 153.826C391.189 153.358 391.395 152.918 391.739 152.6C392.083 152.282 392.538 152.111 393.006 152.124L393.636 152.264C395.239 152.937 396.797 153.716 398.298 154.596C405.057 158.795 421.793 159.891 425.639 162.34Z" fill="#47291C"/>
<path d="M396.76 163.32C402.549 163.884 408.301 164.787 413.985 166.026C419.543 167.683 424.993 169.685 430.302 172.021C429.024 170.903 427.586 169.984 426.036 169.291C422.317 167.422 418.41 165.953 414.381 164.906C410.331 163.863 406.183 163.245 402.004 163.063C400.253 162.904 398.487 162.99 396.76 163.32Z" fill="#28130C"/>
<path d="M396.503 189.165C396.503 189.492 397.715 189.795 399.207 190.075C400.699 190.355 401.934 190.542 402.051 190.238C402.167 189.935 401.002 189.235 399.417 188.932C397.832 188.629 396.503 188.862 396.503 189.165Z" fill="#28130C"/>
<path d="M400.605 197.516C400.605 197.819 401.118 198.309 402.004 198.589C402.89 198.869 403.659 198.869 403.776 198.589C403.892 198.309 403.239 197.796 402.354 197.516C401.468 197.236 400.699 197.213 400.605 197.516Z" fill="#28130C"/>
<path d="M467.992 206.1L524.96 277.174C524.96 277.174 531.953 214.031 531.953 213.238L559.178 160.428C559.178 160.428 597.732 160.428 595.821 199.825C594.562 225.484 583.84 276.521 579.504 291.683C575.169 306.845 564.819 359.072 535.589 355.9C506.359 352.727 467.549 293.059 455.918 270.06C444.286 247.061 434.566 229.146 434.566 229.146L467.992 206.1Z" fill="#455A64"/>
<path d="M443.657 248.903C443.542 248.426 443.37 247.964 443.145 247.527C442.725 246.547 442.142 245.195 441.443 243.632C439.858 240.156 437.644 235.211 434.847 229.03V229.473L468.389 206.543H467.666L496.383 242.069L524.704 276.615L525.543 277.641L525.683 276.335C527.618 257.674 529.273 242.045 530.345 230.826C530.881 225.344 531.301 220.982 531.604 217.88C531.646 216.725 531.747 215.572 531.907 214.427C531.954 214.032 531.954 213.633 531.907 213.238C531.814 213.63 531.744 214.027 531.697 214.427C531.697 215.291 531.417 216.41 531.231 217.833C530.858 220.935 530.322 225.297 529.669 230.756L524.471 276.218L525.427 275.915L497.222 241.182L468.272 205.75L467.946 205.354L467.55 205.657L434.194 228.983L433.937 229.146L434.077 229.426C436.991 235.561 439.322 240.436 441.07 243.888C441.839 245.498 442.469 246.757 442.935 247.714C443.148 248.126 443.39 248.524 443.657 248.903Z" fill="#263238"/>
<path d="M103.108 480.088L125.415 456.038L163.386 492.497L137.209 517.199L103.108 480.088Z" fill="#47291C"/>
<path d="M138.887 513.351L99.657 548.34L92.6642 562.335C92.1424 563.375 91.4205 564.302 90.5401 565.062C89.6596 565.822 88.6379 566.401 87.5334 566.765C86.429 567.129 85.2635 567.271 84.104 567.183C82.9445 567.096 81.8137 566.78 80.7764 566.254L4.34486 527.719C3.14305 527.125 2.15848 526.168 1.53059 524.983C0.90271 523.798 0.663361 522.445 0.84642 521.116C1.02948 519.787 1.62569 518.55 2.5506 517.579C3.47549 516.608 4.68224 515.953 5.99985 515.706C7.35037 515.512 8.7151 515.434 10.079 515.473C17.0718 515.683 69.2149 514.564 69.2149 514.564L103.27 479.994L138.887 513.351Z" fill="#E0E0E0"/>
<path d="M138.887 513.351C138.719 513.139 138.531 512.944 138.327 512.767L136.556 511.041L129.563 504.417C123.386 498.562 114.505 490.141 103.456 479.714L103.177 479.411L102.874 479.714L68.772 514.284L69.145 514.12L33.4816 514.61L14.2281 514.983H9.30977C7.57054 514.907 5.83218 515.152 4.18172 515.706C3.33156 516.08 2.56421 516.619 1.92447 517.292C1.28473 517.966 0.78537 518.76 0.455566 519.628C0.125763 520.497 -0.0278931 521.422 0.00354004 522.351C0.0349884 523.28 0.250885 524.193 0.638672 525.037C1.28203 526.505 2.40929 527.707 3.83205 528.442L7.70142 530.379L15.3469 534.251L30.3115 541.762L58.6325 556.014L71.8489 562.638L78.1891 565.671C79.238 566.184 80.1937 566.744 81.3591 567.21C83.0342 567.829 84.8516 567.954 86.5953 567.569C88.3391 567.185 89.9358 566.307 91.1957 565.041C91.9855 564.231 92.6318 563.292 93.1071 562.265L94.6455 559.303L100.053 548.48V548.62L128.607 522.751L136.299 515.753L138.281 513.934L138.887 513.327L138.141 513.934L136.043 515.753L128.141 522.751L99.3773 548.13C97.6524 551.582 95.811 555.127 93.9229 558.906C93.1252 560.841 92.0494 562.648 90.7295 564.271C89.2163 565.742 87.1977 566.576 85.0886 566.604C84.0153 566.625 82.9476 566.443 81.9419 566.067C80.9629 565.694 79.914 565.088 78.8883 564.575L72.5482 561.379L59.3551 554.708L31.0807 540.409L16.1161 532.851L8.47063 529.002L4.62459 527.043C3.43271 526.458 2.4899 525.465 1.96733 524.244C1.34286 522.851 1.29381 521.268 1.83086 519.839C2.36789 518.41 3.44749 517.252 4.83437 516.616C6.33774 516.127 7.91707 515.914 9.49625 515.986H14.4145L33.6215 515.683L69.3082 515.1L69.4713 514.937L103.433 480.204H102.85L129.073 504.393L136.229 510.948L138.118 512.651L138.887 513.351Z" fill="#263238"/>
<path d="M147.092 513.794L135.157 523.264C134.357 523.901 133.349 524.219 132.328 524.154C131.307 524.089 130.347 523.647 129.633 522.914L96.184 488.625C95.4763 487.89 95.0637 486.921 95.025 485.901C94.9863 484.881 95.3242 483.883 95.9742 483.097L104.599 472.787C105.313 471.95 106.328 471.429 107.423 471.338C108.519 471.246 109.606 471.591 110.449 472.297L110.706 472.53L147.348 509.618C147.614 509.883 147.825 510.197 147.969 510.543C148.112 510.89 148.187 511.261 148.187 511.636C148.187 512.011 148.112 512.382 147.969 512.729C147.825 513.075 147.614 513.389 147.348 513.654L147.092 513.794Z" fill="#E0E0E0"/>
<path d="M147.092 513.794C147.576 513.547 147.945 513.12 148.118 512.604C148.327 511.968 148.327 511.281 148.118 510.645C147.775 509.835 147.248 509.116 146.579 508.545L135.227 496.766L118.281 479.435L113.363 474.419L110.799 471.83C110.271 471.356 109.642 471.008 108.959 470.814C108.276 470.62 107.558 470.585 106.86 470.711C106.16 470.85 105.494 471.128 104.902 471.527C104.373 471.944 103.902 472.43 103.503 472.973L101.172 475.912L96.1608 481.884C95.6753 482.394 95.2598 482.967 94.9254 483.587C94.5782 484.253 94.3969 484.993 94.3969 485.744C94.3969 486.495 94.5782 487.236 94.9254 487.902C95.2898 488.506 95.737 489.055 96.2541 489.535L101.545 494.946L111.568 505.186L128.444 522.471C129.019 523.161 129.724 523.732 130.519 524.15C131.317 524.498 132.195 524.621 133.057 524.506C133.92 524.391 134.735 524.042 135.414 523.497L137.069 522.144L142.5 517.713L145.926 514.843C146.348 514.55 146.725 514.196 147.045 513.794C146.592 514.041 146.163 514.329 145.763 514.657L142.43 517.316C140.845 518.506 138.98 519.952 136.859 521.585C135.717 522.378 134.715 523.567 133.293 523.707C132.577 523.8 131.849 523.687 131.195 523.381C130.489 522.999 129.869 522.475 129.377 521.841L112.571 504.37L102.618 494.083L97.3263 488.648C96.5324 488.039 96.0128 487.138 95.8817 486.146C95.7506 485.153 96.0187 484.148 96.6271 483.353C96.8363 483.097 97.0705 482.863 97.3263 482.654L102.128 476.659C102.967 475.679 103.783 474.699 104.576 473.72C104.929 473.268 105.327 472.854 105.764 472.483C106.208 472.18 106.707 471.966 107.233 471.854C107.754 471.772 108.287 471.805 108.794 471.95C109.301 472.095 109.77 472.348 110.17 472.693L112.617 475.329L117.559 480.298L134.668 497.465L146.323 508.965C146.977 509.466 147.504 510.113 147.861 510.855C148.048 511.423 148.048 512.036 147.861 512.604C147.682 513.046 147.421 513.449 147.092 513.794Z" fill="#263238"/>
<path d="M71.7325 561.216C71.8957 561.332 72.8048 559.909 74.6695 558.043C77.109 555.607 80.0419 553.722 83.2707 552.515C86.5184 551.358 89.973 550.897 93.4103 551.162C96.0443 551.395 97.6526 551.885 97.6992 551.698C96.3972 550.982 94.9603 550.545 93.4802 550.416C89.9146 549.887 86.2734 550.261 82.8895 551.503C79.5057 552.746 76.4872 554.818 74.1101 557.53C73.0631 558.574 72.2523 559.831 71.7325 561.216Z" fill="#263238"/>
<path d="M22.5263 536.98C23.3811 536.289 24.1071 535.451 24.6707 534.507C26.0946 532.215 26.8159 529.555 26.7453 526.856C26.6501 524.193 25.999 521.579 24.8339 519.182C24.4462 518.153 23.8601 517.209 23.109 516.406C23.3202 517.472 23.6648 518.506 24.1346 519.485C25.0452 521.851 25.5724 524.347 25.6964 526.88C25.7433 529.407 25.1669 531.906 24.0181 534.157C23.1323 535.977 22.3864 536.863 22.5263 536.98Z" fill="#263238"/>
<path d="M533.422 206.1C533.631 206.1 533.631 203.627 534.191 199.709C535.686 189.476 540.189 179.919 547.127 172.254C549.785 169.338 551.789 167.775 551.556 167.589C551.323 167.402 550.997 167.845 550.088 168.522C548.825 169.476 547.633 170.52 546.521 171.647C542.811 175.378 539.768 179.717 537.524 184.477C535.239 189.239 533.796 194.361 533.258 199.615C533.096 201.165 533.049 202.724 533.119 204.281C533.258 205.47 533.258 206.1 533.422 206.1Z" fill="#263238"/>
<path d="M479.927 176.919C480.671 177.228 481.456 177.424 482.258 177.502C483.183 177.729 484.127 177.87 485.078 177.922C486.36 178.113 487.652 178.222 488.947 178.249C492.336 178.416 495.733 178.338 499.11 178.015C503.236 177.611 507.327 176.902 511.348 175.893C515.322 174.84 519.217 173.508 523.002 171.904C526.12 170.574 529.135 169.014 532.023 167.239C533.282 166.516 534.354 165.769 535.31 165.116C536.126 164.596 536.905 164.019 537.641 163.39C538.343 162.919 538.979 162.353 539.529 161.711C539.389 161.547 536.569 163.717 531.58 166.492C528.656 168.121 525.636 169.57 522.536 170.831C518.739 172.361 514.846 173.639 510.882 174.657C506.918 175.654 502.892 176.387 498.831 176.849C495.513 177.246 492.171 177.409 488.831 177.339C483.493 177.316 479.973 176.756 479.927 176.919Z" fill="#263238"/>
<path d="M502.257 349.905C501.919 364.137 500.548 378.325 498.155 392.358C494.589 411.812 482.328 436.864 474.659 441.483C466.99 446.102 249.653 413.982 249.653 413.982L154.551 511.951L108.934 465.299C108.934 465.299 193.711 348.529 210.19 342.907C226.67 337.286 383.146 338.242 383.146 338.242L411.118 299.194L502.257 349.905Z" fill="#263238"/>
<path d="M381.585 363.574C381.585 363.574 294.827 263.272 276.11 243.562C257.392 223.851 248.325 208.806 219.981 220.026C191.637 231.246 193.711 249.463 194.877 274.072C196.042 298.681 206.531 379.436 206.531 379.436L381.585 363.574Z" fill="#263238"/>
<path d="M293.173 315.056C291.91 315.215 290.662 315.48 289.443 315.849L279.397 318.438C270.936 320.771 259.258 323.92 246.554 328.049C235.637 331.455 224.967 335.609 214.62 340.481C212.685 341.531 210.914 342.417 209.399 343.304C207.884 344.19 206.625 345.007 205.623 345.636C204.598 346.355 203.617 347.134 202.686 347.969C203.812 347.395 204.881 346.716 205.879 345.94C206.928 345.286 208.21 344.587 209.725 343.607C211.24 342.627 213.058 341.951 214.993 340.971C225.4 336.354 236.062 332.336 246.927 328.935C259.607 324.806 271.215 321.447 279.56 318.975L289.49 316.012C290.742 315.798 291.974 315.478 293.173 315.056Z" fill="#455A64"/>
<path d="M243.336 260.73C243.502 261.537 243.768 262.321 244.129 263.062C244.805 264.812 245.644 266.888 246.6 269.337C248.674 274.632 251.425 282.003 254.059 290.33C256.693 298.658 258.721 306.192 260.096 311.697L261.704 318.275C261.835 319.082 262.078 319.868 262.427 320.608C262.434 319.776 262.348 318.947 262.17 318.135C261.937 316.549 261.518 314.286 260.935 311.487C259.397 304.233 257.485 297.025 255.224 289.934C252.567 281.723 249.653 274.352 247.322 269.127C246.18 266.514 245.201 264.462 244.479 262.992C244.204 262.189 243.82 261.427 243.336 260.73Z" fill="#455A64"/>
<path d="M266.739 394.574C265.291 395.701 263.963 396.976 262.777 398.377C260.446 400.826 257.299 404.255 253.872 408.127C250.446 411.999 247.392 415.498 245.225 418.11C243.97 419.457 242.853 420.926 241.891 422.496C243.362 421.394 244.692 420.117 245.854 418.694C248.185 416.361 251.332 412.792 254.758 408.943C258.185 405.095 261.262 401.549 263.429 398.936C264.7 397.618 265.811 396.154 266.739 394.574Z" fill="#455A64"/>
<path d="M620.646 200.782C620.646 200.782 387.412 258.887 313.824 287.811C303.288 291.94 294.221 302.646 292.846 312.093C289.932 332.014 272.1 480.041 271.261 484.263C270.422 488.485 262.73 507.589 275.177 507.589C287.624 507.589 537.921 529.749 549.575 523.614C559.389 518.482 615.984 288.021 629.037 218.626C629.739 215.144 629.302 211.529 627.79 208.315C626.279 205.101 623.774 202.46 620.646 200.782Z" fill="#F7BF08"/>
<path d="M629.014 218.743C629.387 219.209 622.907 222.125 610.996 226.464C599.085 230.802 581.719 236.867 560.228 244.122C517.222 258.654 457.666 278.131 391.678 299.404L333.404 318.065L333.054 318.182V318.532C323.078 372.181 314.407 418.833 308.23 452.166L301.097 491.167C300.281 495.693 299.675 499.215 299.232 501.641C299.046 502.807 298.883 503.694 298.79 504.347C298.696 505 298.79 505.28 298.79 505.28C298.814 504.968 298.885 504.661 298.999 504.37C299.231 503.478 299.418 502.575 299.559 501.664C300.025 499.332 300.724 495.763 301.61 491.237C303.358 482.094 305.899 468.868 309.092 452.306C315.363 419.02 324.173 372.391 334.313 318.741L333.917 319.185L392.19 300.524C458.109 279.25 517.688 259.633 560.647 244.891C581.999 237.404 599.294 231.362 611.182 226.837C623.07 222.312 629.48 219.326 629.014 218.743Z" fill="#263238"/>
<path d="M138.887 422.496C138.957 421.907 138.957 421.312 138.887 420.723C138.887 419.463 138.887 417.784 138.724 415.684C138.537 411.159 138.281 404.861 137.955 397.024C137.185 381.255 136.113 359.702 134.924 335.863C134.924 334.37 134.784 332.877 134.691 331.407C134.563 329.964 134.563 328.512 134.691 327.069C134.937 323.021 136.349 319.131 138.756 315.869C141.164 312.608 144.464 310.113 148.257 308.688L174.294 300.384L191.962 294.716L196.624 293.106C197.199 292.962 197.754 292.75 198.279 292.476C197.695 292.561 197.118 292.694 196.554 292.873L191.706 294.272L173.921 299.567C166.415 301.9 157.604 304.512 147.605 307.638C143.578 309.105 140.07 311.72 137.514 315.161C134.958 318.602 133.466 322.718 133.223 326.999C133.129 328.49 133.129 329.986 133.223 331.477C133.223 332.947 133.386 334.44 133.456 335.933C134.784 359.749 135.973 381.302 136.836 397.07C137.325 404.791 137.721 411.066 138.001 415.614C138.164 417.691 138.281 419.37 138.374 420.653C138.379 421.302 138.556 421.938 138.887 422.496Z" fill="#263238"/>
</svg>
