<svg width="232" height="230" viewBox="0 0 232 230" fill="none" xmlns="http://www.w3.org/2000/svg">
<path d="M116 196.678C165.686 196.678 205.965 194.346 205.965 191.47C205.965 188.595 165.686 186.263 116 186.263C66.3138 186.263 26.0352 188.595 26.0352 191.47C26.0352 194.346 66.3138 196.678 116 196.678Z" fill="#F5F5F5"/>
<path d="M114.418 40.48C113.996 37.9408 115.727 35.88 118.288 35.88H99.5748C97.0135 35.88 95.2828 37.9362 95.705 40.48H114.418Z" fill="#FBC02D"/>
<path opacity="0.3" d="M114.418 40.48C113.996 37.9408 115.727 35.88 118.288 35.88H99.5748C97.0135 35.88 95.2828 37.9362 95.705 40.48H114.418Z" fill="black"/>
<path d="M118.288 35.88H99.5752C100.87 35.9227 102.112 36.4016 103.095 37.2378C104.079 38.0741 104.746 39.2177 104.985 40.48L109.083 65.0072C109.323 66.2692 109.99 67.4123 110.973 68.2484C111.957 69.0845 113.198 69.5637 114.493 69.6072H123.931C126.492 69.6072 128.223 67.5464 127.8 65.0072L123.699 40.48C123.459 39.2177 122.792 38.0741 121.808 37.2378C120.825 36.4016 119.583 35.9227 118.288 35.88V35.88Z" fill="#FBC02D"/>
<path d="M118.362 65.021C118.784 67.5602 117.053 69.621 114.492 69.621H133.205C133.788 69.6405 134.367 69.528 134.899 69.2919C135.431 69.0558 135.901 68.7025 136.274 68.2588C136.648 67.8152 136.914 67.2929 137.053 66.7317C137.191 66.1706 137.199 65.5855 137.075 65.021H118.362Z" fill="#FBC02D"/>
<path opacity="0.3" d="M118.362 65.021C118.784 67.5602 117.053 69.621 114.492 69.621H133.205C133.788 69.6405 134.367 69.528 134.899 69.2919C135.431 69.0558 135.901 68.7025 136.274 68.2588C136.648 67.8152 136.914 67.2929 137.053 66.7317C137.191 66.1706 137.199 65.5855 137.075 65.021H118.362Z" fill="black"/>
<path d="M121.374 42.6098H108.015C107.938 42.607 107.863 42.5782 107.804 42.5281C107.745 42.478 107.705 42.4095 107.69 42.3338V42.3338C107.683 42.2999 107.683 42.2647 107.691 42.2308C107.699 42.197 107.715 42.1654 107.737 42.1387C107.76 42.112 107.788 42.0907 107.82 42.0767C107.852 42.0627 107.887 42.0562 107.922 42.0578H121.281C121.359 42.0606 121.433 42.0894 121.492 42.1396C121.551 42.1897 121.591 42.2582 121.606 42.3338C121.614 42.3677 121.614 42.403 121.605 42.4368C121.597 42.4707 121.581 42.5022 121.559 42.529C121.537 42.5557 121.508 42.5769 121.476 42.5909C121.444 42.605 121.409 42.6114 121.374 42.6098V42.6098Z" fill="white"/>
<path d="M113.973 44.5234H108.336C108.258 44.5206 108.183 44.4918 108.124 44.4417C108.065 44.3915 108.025 44.3231 108.011 44.2474V44.2474C108.003 44.2135 108.003 44.1782 108.011 44.1444C108.019 44.1105 108.035 44.079 108.058 44.0523C108.08 44.0255 108.108 44.0043 108.141 43.9903C108.173 43.9763 108.208 43.9698 108.243 43.9714H113.88C113.958 43.9742 114.032 44.003 114.091 44.0531C114.15 44.1033 114.19 44.1718 114.205 44.2474V44.2474C114.212 44.2812 114.211 44.3161 114.203 44.3496C114.194 44.383 114.178 44.4142 114.156 44.4407C114.134 44.4672 114.106 44.4884 114.074 44.5027C114.042 44.517 114.008 44.5241 113.973 44.5234V44.5234Z" fill="white"/>
<path d="M119.188 44.5234H115.291C115.214 44.5204 115.14 44.4914 115.082 44.4412C115.024 44.3911 114.984 44.3227 114.971 44.2474V44.2474C114.963 44.2139 114.963 44.179 114.971 44.1455C114.979 44.112 114.994 44.0808 115.016 44.0541C115.038 44.0275 115.066 44.0062 115.097 43.9919C115.129 43.9775 115.163 43.9705 115.198 43.9714H119.096C119.173 43.9744 119.246 44.0033 119.305 44.0535C119.363 44.1037 119.402 44.1721 119.416 44.2474V44.2474C119.424 44.2809 119.424 44.3157 119.416 44.3492C119.408 44.3827 119.392 44.414 119.37 44.4406C119.348 44.4673 119.321 44.4886 119.289 44.5029C119.258 44.5173 119.223 44.5243 119.188 44.5234V44.5234Z" fill="white"/>
<path d="M122.032 46.46H108.655C108.578 46.4583 108.503 46.4304 108.444 46.3811C108.385 46.3317 108.345 46.2638 108.33 46.1886V46.1886C108.322 46.1547 108.322 46.1195 108.33 46.0856C108.339 46.0517 108.354 46.0202 108.377 45.9935C108.399 45.9668 108.428 45.9455 108.46 45.9315C108.492 45.9175 108.527 45.911 108.562 45.9126H121.921C121.998 45.9154 122.073 45.9442 122.132 45.9944C122.191 46.0445 122.231 46.113 122.245 46.1886V46.1886C122.252 46.2207 122.252 46.2538 122.244 46.2857C122.237 46.3176 122.223 46.3476 122.202 46.3734C122.182 46.3992 122.156 46.4204 122.127 46.4353C122.097 46.4503 122.065 46.4587 122.032 46.46Z" fill="white"/>
<path d="M121.016 48.3552H108.975C108.897 48.3524 108.823 48.3236 108.764 48.2735C108.705 48.2233 108.665 48.1548 108.65 48.0792V48.0792C108.643 48.0454 108.644 48.0105 108.653 47.977C108.661 47.9435 108.677 47.9124 108.699 47.8859C108.722 47.8594 108.75 47.8382 108.781 47.8239C108.813 47.8096 108.847 47.8025 108.882 47.8032H120.946C121.024 47.806 121.098 47.8348 121.157 47.8849C121.216 47.935 121.256 48.0035 121.271 48.0792V48.0792C121.279 48.115 121.278 48.1521 121.268 48.1875C121.258 48.2228 121.24 48.2553 121.215 48.2823C121.19 48.3093 121.159 48.33 121.124 48.3427C121.09 48.3554 121.052 48.3596 121.016 48.3552Z" fill="white"/>
<path d="M117.392 50.2688H109.295C109.218 50.266 109.143 50.2372 109.084 50.1871C109.025 50.1369 108.985 50.0684 108.971 49.9928V49.9928C108.964 49.9592 108.964 49.9245 108.973 49.8912C108.981 49.8579 108.997 49.827 109.02 49.8009C109.042 49.7747 109.07 49.7539 109.102 49.7402C109.134 49.7264 109.168 49.72 109.203 49.7214H117.304C117.381 49.7247 117.454 49.7532 117.513 49.8023C117.572 49.8514 117.613 49.9184 117.629 49.9928V49.9928C117.636 50.027 117.635 50.0623 117.626 50.0961C117.618 50.13 117.601 50.1613 117.578 50.1879C117.556 50.2145 117.527 50.2356 117.495 50.2496C117.462 50.2637 117.427 50.2702 117.392 50.2688V50.2688Z" fill="white"/>
<path d="M122.96 52.187H109.616C109.538 52.1842 109.464 52.1554 109.405 52.1053C109.346 52.0552 109.305 51.9867 109.291 51.911V51.911C109.284 51.8772 109.285 51.8423 109.293 51.8088C109.302 51.7754 109.318 51.7442 109.34 51.7177C109.362 51.6912 109.39 51.67 109.422 51.6557C109.454 51.6414 109.488 51.6343 109.523 51.635H122.881C122.959 51.6378 123.033 51.6666 123.092 51.7168C123.151 51.7669 123.192 51.8354 123.206 51.911C123.215 51.9461 123.214 51.9827 123.205 52.0177C123.197 52.0527 123.179 52.0851 123.155 52.1122C123.131 52.1392 123.101 52.1601 123.067 52.1732C123.033 52.1862 122.996 52.1909 122.96 52.187Z" fill="white"/>
<path d="M123.295 54.1006H109.936C109.858 54.0978 109.784 54.069 109.725 54.0189C109.666 53.9687 109.626 53.9003 109.611 53.8246V53.8246C109.604 53.7908 109.605 53.7559 109.613 53.7224C109.622 53.6889 109.638 53.6578 109.66 53.6313C109.683 53.6048 109.711 53.5836 109.742 53.5693C109.774 53.555 109.808 53.5479 109.843 53.5486H123.206C123.283 53.5516 123.357 53.5806 123.415 53.6307C123.474 53.6809 123.513 53.7493 123.527 53.8246V53.8246C123.534 53.8585 123.534 53.8938 123.526 53.9276C123.518 53.9615 123.502 53.993 123.48 54.0197C123.457 54.0465 123.429 54.0677 123.397 54.0817C123.365 54.0957 123.33 54.1022 123.295 54.1006V54.1006Z" fill="white"/>
<path d="M118.358 56.0142H110.256C110.179 56.0109 110.106 55.9824 110.047 55.9333C109.988 55.8842 109.948 55.8172 109.931 55.7428V55.7428C109.924 55.709 109.925 55.6741 109.934 55.6406C109.942 55.6072 109.958 55.576 109.981 55.5495C110.003 55.523 110.031 55.5018 110.062 55.4875C110.094 55.4732 110.129 55.4661 110.163 55.4668H118.265C118.343 55.4696 118.417 55.4984 118.476 55.5485C118.535 55.5987 118.575 55.6672 118.59 55.7428V55.7428C118.597 55.7764 118.596 55.8111 118.588 55.8444C118.579 55.8777 118.563 55.9086 118.541 55.9347C118.518 55.9609 118.49 55.9817 118.458 55.9954C118.427 56.0092 118.392 56.0156 118.358 56.0142V56.0142Z" fill="white"/>
<path d="M126.026 61.2809L126.862 61.7949L139.685 41.2996L138.85 40.7855L126.026 61.2809Z" fill="#263238"/>
<path opacity="0.3" d="M126.026 61.2809L126.862 61.7949L139.685 41.2996L138.85 40.7855L126.026 61.2809Z" fill="black"/>
<path d="M124.358 60.2563L125.194 60.7703L138.017 40.275L137.182 39.7609L124.358 60.2563Z" fill="#263238"/>
<path opacity="0.3" d="M124.358 60.2563L125.194 60.7703L138.017 40.275L137.182 39.7609L124.358 60.2563Z" fill="black"/>
<path d="M125.198 60.7666L126.034 61.2806L138.857 40.7853L138.021 40.2713L125.198 60.7666Z" fill="#263238"/>
<path d="M124.339 62.2288L125.091 62.6934L126.868 61.7964L124.362 60.2554L124.339 62.2288Z" fill="#FF8B7B"/>
<path d="M124.329 63.0798L125.09 62.6934L124.338 62.2288L124.329 63.0798Z" fill="#263238"/>
<path d="M123.888 63.25H123.856C123.234 62.9961 122.684 62.5949 122.255 62.0816C121.986 61.7953 121.692 61.5321 121.378 61.295C121.331 61.2557 121.271 61.2342 121.209 61.2342C121.147 61.2342 121.087 61.2557 121.039 61.295C121.002 61.3358 120.981 61.3891 120.981 61.4445C120.981 61.4999 121.002 61.5532 121.039 61.594C121.151 61.7596 121.276 61.916 121.401 62.054C121.452 62.1087 121.483 62.1781 121.491 62.2519C121.498 62.3256 121.481 62.3998 121.443 62.4634C121.403 62.5193 121.345 62.5608 121.279 62.5815C121.213 62.6023 121.142 62.6012 121.077 62.5784C120.9 62.5213 120.727 62.4553 120.557 62.3806C120.542 62.3674 120.522 62.3603 120.502 62.3609C120.482 62.3615 120.463 62.3697 120.449 62.3838C120.434 62.3979 120.426 62.4168 120.426 62.4368C120.425 62.4567 120.432 62.4761 120.445 62.491L120.469 62.5508C120.496 62.6114 120.507 62.6781 120.501 62.7443C120.494 62.8104 120.47 62.8738 120.432 62.928C120.392 62.98 120.34 63.0211 120.28 63.0477C120.22 63.0742 120.154 63.0853 120.088 63.0798C118.046 62.9843 116 62.992 113.959 63.1028C113.928 63.1028 113.898 63.0907 113.877 63.0691C113.855 63.0476 113.843 63.0183 113.843 62.9878C113.843 62.9573 113.855 62.9281 113.877 62.9065C113.898 62.8849 113.928 62.8728 113.959 62.8728C116.008 62.762 118.061 62.7543 120.111 62.8498C120.137 62.8542 120.164 62.8513 120.189 62.8416C120.213 62.8319 120.235 62.8156 120.251 62.7946C120.264 62.7708 120.272 62.7439 120.272 62.7164C120.272 62.6889 120.264 62.662 120.251 62.6382L120.227 62.5876C120.195 62.5291 120.183 62.4618 120.192 62.3957C120.201 62.3296 120.232 62.2683 120.28 62.2211C120.328 62.1739 120.389 62.1433 120.456 62.1339C120.523 62.1245 120.591 62.1368 120.65 62.169C120.809 62.2433 120.973 62.3064 121.141 62.3576C121.156 62.3688 121.174 62.3749 121.193 62.3749C121.211 62.3749 121.229 62.3688 121.244 62.3576C121.255 62.336 121.259 62.3111 121.255 62.287C121.251 62.2628 121.239 62.2407 121.22 62.2242C121.086 62.0678 120.961 61.9022 120.845 61.7366C120.778 61.6504 120.744 61.5435 120.749 61.4348C120.754 61.3262 120.798 61.2229 120.872 61.1432C120.958 61.0643 121.071 61.0205 121.188 61.0205C121.305 61.0205 121.418 61.0643 121.503 61.1432C121.838 61.3852 122.148 61.6578 122.431 61.9574C122.828 62.418 123.327 62.7816 123.888 63.02C123.903 63.0247 123.917 63.0322 123.929 63.0422C123.94 63.0522 123.95 63.0644 123.957 63.0781C123.964 63.0918 123.968 63.1068 123.969 63.1221C123.97 63.1374 123.968 63.1527 123.963 63.1672C123.958 63.1861 123.949 63.2036 123.936 63.2181C123.923 63.2325 123.907 63.2435 123.888 63.25Z" fill="white"/>
<path d="M121.897 80.1044L125.002 74.7822H118.798L121.897 80.1044Z" fill="#FBC02D"/>
<path d="M156.73 64.4736C155.411 63.3164 153.693 62.707 151.933 62.7716C150.805 60.5176 148.481 59.202 146.021 59.6482C142.495 60.2876 141.419 64.4874 143.868 66.0192C144.679 66.5281 145.556 66.9229 146.476 67.1922V67.3026C145.035 67.8177 143.775 68.7341 142.847 69.9417C141.918 71.1493 141.361 72.5968 141.242 74.1106C140.88 79.3178 146.523 82.363 149.594 79.465C150.019 79.0652 150.422 78.6429 150.801 78.2C151.395 79.028 152.035 79.8744 152.726 80.7576C160.401 77.2524 161.695 68.7194 156.73 64.4736Z" fill="#263238"/>
<path d="M141.302 84.7182C141.255 85.3622 141.2 85.9234 141.116 86.5122C141.033 87.101 140.954 87.6714 140.856 88.2464C140.661 89.401 140.392 90.5464 140.119 91.6734C139.554 93.9661 138.765 96.1985 137.761 98.3388L137.664 98.5412C137.627 98.6194 137.618 98.647 137.548 98.785C137.432 99.0125 137.294 99.2282 137.135 99.429C136.836 99.7932 136.477 100.104 136.073 100.349C135.405 100.744 134.668 101.01 133.901 101.136C132.637 101.329 131.351 101.346 130.082 101.186C127.733 100.901 125.424 100.35 123.201 99.544L123.712 97.704C124.783 97.865 125.902 98.0122 126.997 98.1088C128.075 98.2252 129.16 98.2805 130.245 98.2744C131.241 98.2923 132.235 98.1873 133.205 97.9616C133.556 97.8776 133.888 97.7294 134.184 97.5246C134.257 97.4717 134.319 97.4044 134.365 97.3268C134.378 97.3036 134.387 97.2788 134.393 97.2532L134.523 96.922C134.718 96.4298 134.908 95.933 135.07 95.4224C135.233 94.9118 135.404 94.4058 135.567 93.8952C135.859 92.8602 136.147 91.8252 136.383 90.7672C136.62 89.7092 136.815 88.6512 136.996 87.584C137.177 86.5168 137.321 85.4128 137.427 84.4192L141.302 84.7182Z" fill="#AD6359"/>
<path d="M138.661 80.1136C137.093 80.5046 135.998 86.894 135.998 86.894L140.313 89.8012C140.313 89.8012 144.452 83.3612 143.246 81.6546C141.984 79.8744 140.944 79.534 138.661 80.1136Z" fill="#263238"/>
<path opacity="0.2" d="M138.801 81.5396L137.6 87.975L140.022 89.608L138.801 81.5396Z" fill="black"/>
<path d="M122.097 97.7868L119.169 98.9L122.477 100.878C122.477 100.878 124.588 99.6682 124.533 98.118L124.208 97.934C123.889 97.7555 123.534 97.6497 123.169 97.6242C122.804 97.5988 122.438 97.6543 122.097 97.7868V97.7868Z" fill="#9C4C42"/>
<path opacity="0.1" d="M121.879 97.9294L120.431 98.44C120.148 98.5348 119.871 98.6453 119.601 98.7712C119.601 98.7712 120.556 99.1668 121.034 98.9C121.759 98.9541 122.488 98.9108 123.201 98.7712L121.879 97.9294Z" fill="black"/>
<path d="M117.346 101.057L119.837 103.114L122.473 100.896L119.169 98.9184L117.346 101.057Z" fill="#9C4C42"/>
<path d="M147.13 187.625H143.334L143.079 178.903H146.879L147.13 187.625Z" fill="#FFB573"/>
<path d="M143.204 187.188H147.469C147.543 187.186 147.615 187.211 147.671 187.259C147.728 187.306 147.765 187.373 147.775 187.445L148.239 190.794C148.248 190.879 148.239 190.964 148.213 191.045C148.186 191.125 148.143 191.2 148.085 191.263C148.028 191.326 147.958 191.376 147.88 191.41C147.801 191.444 147.717 191.462 147.631 191.461C146.146 191.438 145.427 191.351 143.548 191.351C142.397 191.351 139.079 191.47 137.483 191.47C135.887 191.47 135.804 189.906 136.467 189.764C139.446 189.129 141.571 188.255 142.55 187.418C142.734 187.267 142.966 187.186 143.204 187.188V187.188Z" fill="#263238"/>
<g opacity="0.2">
<path opacity="0.2" d="M143.079 178.903L143.209 183.402H147.009L146.879 178.903H143.079Z" fill="black"/>
</g>
<path d="M138.662 80.1136C138.662 80.1136 136.852 80.7438 140.476 102.842H155.904C155.644 96.6184 155.64 92.7774 158.642 80.0032C156.482 79.56 154.292 79.2741 152.09 79.1476C149.757 78.9818 147.416 78.9818 145.084 79.1476C142.072 79.419 138.662 80.1136 138.662 80.1136Z" fill="#263238"/>
<path d="M149.288 86.1718C148.013 86.1342 146.774 85.7455 145.71 85.0494C145.698 85.0411 145.687 85.0304 145.679 85.018C145.671 85.0056 145.665 84.9917 145.663 84.9771C145.66 84.9625 145.661 84.9475 145.664 84.9331C145.667 84.9186 145.674 84.905 145.682 84.893C145.691 84.8802 145.702 84.8692 145.715 84.8606C145.727 84.8521 145.742 84.8461 145.757 84.8431C145.772 84.8401 145.787 84.8401 145.803 84.8432C145.818 84.8462 145.832 84.8522 145.845 84.8608C146.982 85.6002 148.323 85.9729 149.682 85.928C150.188 85.6106 153.686 83.2968 153.951 79.2902C153.952 79.2751 153.956 79.2603 153.963 79.2468C153.97 79.2333 153.98 79.2213 153.991 79.2114C154.003 79.2016 154.016 79.1942 154.031 79.1895C154.046 79.1849 154.061 79.1831 154.076 79.1844C154.091 79.1855 154.106 79.1897 154.12 79.1966C154.134 79.2034 154.146 79.2129 154.156 79.2245C154.165 79.236 154.173 79.2494 154.178 79.2638C154.182 79.2783 154.184 79.2935 154.183 79.3086C153.914 83.4072 150.471 85.7164 149.78 86.135C149.763 86.1395 149.745 86.1395 149.728 86.135C149.58 86.1672 149.432 86.1718 149.288 86.1718Z" fill="white"/>
<path d="M142.722 85.4634C142.702 85.4701 142.681 85.4701 142.662 85.4634C142.492 85.333 142.354 85.1675 142.256 84.9783C142.158 84.7891 142.103 84.581 142.096 84.3686C141.877 82.9656 142.402 80.5138 143.488 79.2442C143.498 79.2331 143.511 79.2242 143.526 79.2182C143.54 79.2121 143.555 79.209 143.571 79.209C143.587 79.209 143.602 79.2121 143.616 79.2182C143.631 79.2242 143.644 79.2331 143.655 79.2442C143.676 79.2657 143.688 79.2946 143.688 79.3247C143.688 79.3548 143.676 79.3837 143.655 79.4052C142.624 80.5966 142.091 82.9932 142.3 84.3456C142.32 84.6955 142.475 85.0244 142.731 85.2656C143.374 85.1549 143.998 84.9584 144.587 84.6814C144.616 84.6703 144.647 84.6703 144.676 84.6814C144.704 84.6925 144.727 84.7139 144.74 84.7412C144.746 84.7551 144.75 84.77 144.75 84.7852C144.75 84.8004 144.748 84.8154 144.742 84.8295C144.736 84.8437 144.728 84.8565 144.717 84.8674C144.707 84.8783 144.694 84.887 144.68 84.893C144.058 85.1743 143.399 85.3663 142.722 85.4634Z" fill="white"/>
<path d="M151.394 71.3276C150.954 73.5586 150.513 77.6572 152.09 79.1476C152.09 79.1476 151.473 81.4154 147.283 81.4154C142.676 81.4154 145.084 79.1476 145.084 79.1476C147.594 78.5496 147.529 76.7004 147.093 74.9662L151.394 71.3276Z" fill="#AD6359"/>
<path d="M152.085 79.1476C149.753 78.9818 147.411 78.9818 145.079 79.1476L144.615 79.1936C144.053 80.2424 143.914 81.857 145.255 84.2536C145.255 84.2536 151.399 81.7972 152.999 79.2304C152.702 79.1844 152.396 79.1614 152.085 79.1476Z" fill="#AD6359"/>
<path opacity="0.2" d="M149.64 72.8134L147.088 74.98C147.198 75.3835 147.271 75.7961 147.306 76.2128C148.266 76.0748 149.584 75.0306 149.686 74.0324C149.747 73.6268 149.732 73.2134 149.64 72.8134V72.8134Z" fill="black"/>
<path d="M153.826 67.4544C152.967 71.093 152.679 72.6524 150.48 74.221C147.176 76.5854 142.857 74.7454 142.592 70.9228C142.36 67.4866 143.808 62.1092 147.696 61.2628C148.551 61.0717 149.441 61.1003 150.282 61.3458C151.123 61.5914 151.887 62.0458 152.5 62.666C153.114 63.2862 153.558 64.0516 153.79 64.8896C154.022 65.7276 154.034 66.6104 153.826 67.4544V67.4544Z" fill="#AD6359"/>
<path d="M140.476 102.842C140.476 102.842 137.478 131.854 137.729 143.322C137.989 155.282 142.401 182.51 142.401 182.51H147.552C147.552 182.51 146.74 155.963 147.194 144.233C147.691 131.44 151.788 102.833 151.788 102.833L140.476 102.842Z" fill="#FBC02D"/>
<path opacity="0.3" d="M140.476 102.842C140.476 102.842 137.478 131.854 137.729 143.322C137.989 155.282 142.401 182.51 142.401 182.51H147.552C147.552 182.51 146.74 155.963 147.194 144.233C147.691 131.44 151.788 102.833 151.788 102.833L140.476 102.842Z" fill="white"/>
<path d="M147.984 182.712H141.956L141.516 180.808L148.267 180.573L147.984 182.712Z" fill="#263238"/>
<path opacity="0.2" d="M147.13 110.06C143.344 117.617 146.369 131.404 147.71 136.533C148.397 128.832 149.566 119.411 150.462 112.498C149.872 108.588 148.879 106.577 147.13 110.06Z" fill="black"/>
<path d="M164.887 187.625H161.087L159.695 178.903H163.491L164.887 187.625Z" fill="#FFB573"/>
<path d="M160.901 187.188H165.184C165.26 187.189 165.334 187.215 165.394 187.261C165.455 187.308 165.498 187.372 165.518 187.445L166.446 190.794C166.469 190.873 166.472 190.957 166.456 191.038C166.44 191.118 166.405 191.194 166.354 191.259C166.303 191.324 166.238 191.376 166.162 191.411C166.087 191.447 166.005 191.464 165.922 191.461C164.432 191.438 163.704 191.351 161.825 191.351C160.669 191.351 157.37 191.47 155.793 191.47C154.215 191.47 153.909 189.906 154.554 189.764C157.449 189.129 159.435 188.255 160.331 187.418C160.487 187.276 160.689 187.194 160.901 187.188V187.188Z" fill="#263238"/>
<g opacity="0.2">
<path opacity="0.2" d="M159.695 178.903L160.415 183.402H164.215L163.495 178.903H159.695Z" fill="black"/>
</g>
<path d="M144.769 102.842C144.769 102.842 147.956 131.854 149.71 143.322C151.534 155.282 159.514 182.51 159.514 182.51H164.628C164.628 182.51 160.34 155.963 159.259 144.233C158.081 131.44 156.044 102.833 156.044 102.833L144.769 102.842Z" fill="#FBC02D"/>
<path opacity="0.3" d="M144.769 102.842C144.769 102.842 147.956 131.854 149.71 143.322C151.534 155.282 159.514 182.51 159.514 182.51H164.628C164.628 182.51 160.34 155.963 159.259 144.233C158.081 131.44 156.044 102.833 156.044 102.833L144.769 102.842Z" fill="white"/>
<path d="M165.096 182.712H159.068L158.377 180.808L165.096 180.573V182.712Z" fill="#263238"/>
<path d="M159.56 187.846C159.227 187.872 158.893 187.792 158.609 187.616C158.542 187.564 158.487 187.498 158.449 187.422C158.412 187.346 158.392 187.263 158.391 187.179C158.386 187.132 158.395 187.085 158.416 187.043C158.437 187.002 158.471 186.967 158.512 186.944C158.943 186.691 160.558 187.455 160.739 187.547C160.757 187.554 160.773 187.567 160.784 187.583C160.794 187.6 160.8 187.619 160.799 187.639C160.8 187.656 160.794 187.673 160.783 187.686C160.772 187.7 160.756 187.709 160.739 187.712C160.351 187.794 159.957 187.839 159.56 187.846V187.846ZM158.781 187.068C158.725 187.064 158.669 187.076 158.619 187.1C158.602 187.11 158.588 187.124 158.58 187.141C158.571 187.159 158.569 187.178 158.572 187.197C158.573 187.252 158.586 187.306 158.61 187.355C158.634 187.404 158.668 187.448 158.711 187.482C158.971 187.689 159.598 187.721 160.423 187.583C159.907 187.326 159.353 187.152 158.781 187.068V187.068Z" fill="#FBC02D"/>
<path d="M160.72 187.712H160.683C160.219 187.505 159.203 186.696 159.217 186.268C159.217 186.167 159.277 186.042 159.523 186.015C159.709 185.999 159.893 186.055 160.038 186.171C160.427 186.572 160.691 187.075 160.799 187.62C160.802 187.635 160.801 187.651 160.796 187.665C160.792 187.68 160.783 187.693 160.771 187.703C160.756 187.711 160.738 187.714 160.72 187.712ZM159.616 186.185H159.565C159.403 186.185 159.398 186.268 159.398 186.286C159.398 186.544 160.08 187.183 160.576 187.459C160.481 187.02 160.26 186.618 159.941 186.3C159.849 186.226 159.734 186.186 159.616 186.185Z" fill="#FBC02D"/>
<path d="M147.743 67.4314C147.692 67.7304 147.488 67.9466 147.279 67.8914C147.07 67.8362 146.959 67.5878 147.014 67.2888C147.07 66.9898 147.265 66.7736 147.478 66.8058C147.692 66.838 147.794 67.1324 147.743 67.4314Z" fill="#263238"/>
<path d="M144.327 66.8564C144.276 67.1554 144.072 67.3716 143.863 67.3164C143.654 67.2612 143.548 67.0174 143.599 66.7138C143.65 66.4102 143.849 66.1986 144.063 66.2538C144.276 66.309 144.378 66.5574 144.327 66.8564Z" fill="#263238"/>
<path d="M144.146 66.286L143.455 65.9548C143.455 65.9548 143.733 66.5804 144.146 66.286Z" fill="#263238"/>
<path d="M145.288 67.574C144.905 68.2108 144.437 68.7927 143.896 69.3036C144.032 69.4379 144.195 69.5415 144.376 69.6074C144.556 69.6733 144.748 69.6999 144.94 69.6854L145.288 67.574Z" fill="#95463B"/>
<path d="M146.369 71.1344C146.213 71.1345 146.058 71.1206 145.905 71.093C145.893 71.0913 145.882 71.0873 145.872 71.0813C145.862 71.0753 145.853 71.0673 145.846 71.0579C145.839 71.0485 145.834 71.0377 145.831 71.0264C145.829 71.015 145.828 71.0033 145.83 70.9918C145.835 70.9681 145.849 70.9471 145.869 70.9334C145.889 70.9196 145.913 70.9141 145.937 70.9182C146.311 70.9893 146.696 70.9722 147.062 70.8683C147.428 70.7644 147.764 70.5767 148.044 70.3202C148.052 70.3113 148.062 70.3041 148.073 70.2993C148.084 70.2944 148.096 70.2919 148.109 70.2919C148.121 70.2919 148.133 70.2944 148.144 70.2993C148.155 70.3041 148.165 70.3113 148.174 70.3202C148.182 70.3283 148.188 70.338 148.193 70.3486C148.197 70.3593 148.2 70.3707 148.2 70.3823C148.2 70.3938 148.197 70.4053 148.193 70.4159C148.188 70.4266 148.182 70.4363 148.174 70.4444C147.688 70.902 147.039 71.1501 146.369 71.1344V71.1344Z" fill="#263238"/>
<path d="M155.616 61.7872C155.181 61.4842 154.686 61.2743 154.164 61.1708C153.742 57.5828 150.842 55.3012 147.608 56.0234C143.942 56.8422 142.666 61.3502 145.13 62.8866C146.579 63.7645 148.216 64.2924 149.909 64.4276C149.974 67.4038 151.844 69.9476 153.157 70.0856C156.906 68.6044 157.876 63.365 155.616 61.7872Z" fill="#263238"/>
<path d="M154.253 70.9964C153.883 71.6192 153.282 72.0734 152.578 72.2614C151.65 72.496 151.186 71.6634 151.473 70.7986C151.719 70.0212 152.508 68.9586 153.441 69.1012C153.643 69.1379 153.833 69.2239 153.994 69.3514C154.155 69.479 154.281 69.6441 154.362 69.832C154.442 70.0198 154.474 70.2246 154.455 70.4278C154.436 70.6311 154.367 70.8264 154.253 70.9964Z" fill="#AD6359"/>
<path d="M149.232 66.9714C149.194 66.9713 149.156 66.9593 149.126 66.937C149.095 66.9146 149.072 66.8832 149.06 66.8472C148.814 66.0606 147.798 65.7202 147.789 65.7202C147.743 65.7055 147.706 65.6735 147.684 65.6313C147.662 65.589 147.658 65.54 147.673 65.4948C147.68 65.4722 147.691 65.4511 147.706 65.4329C147.721 65.4147 147.74 65.3998 147.762 65.3891C147.783 65.3783 147.806 65.3719 147.83 65.3704C147.854 65.3688 147.878 65.372 147.9 65.3798C147.946 65.3798 149.106 65.78 149.403 66.7598C149.418 66.805 149.414 66.854 149.392 66.8963C149.371 66.9385 149.333 66.9705 149.287 66.9852L149.232 66.9714Z" fill="#263238"/>
<path d="M143.571 65.1176C143.54 65.1176 143.509 65.1095 143.481 65.0942C143.453 65.0789 143.43 65.0569 143.413 65.0302C143.39 64.9887 143.384 64.9398 143.397 64.894C143.411 64.8483 143.441 64.8096 143.483 64.7864C143.727 64.6399 144.004 64.5534 144.289 64.5342C144.573 64.515 144.859 64.5636 145.121 64.676C145.157 64.7005 145.184 64.7374 145.195 64.7796C145.206 64.8219 145.201 64.8667 145.181 64.9056C145.161 64.9445 145.127 64.9749 145.086 64.991C145.046 65.0072 145 65.0081 144.959 64.9934V64.9934C144.749 64.9084 144.523 64.8733 144.297 64.8909C144.071 64.9085 143.853 64.9782 143.659 65.0946C143.633 65.1107 143.602 65.1187 143.571 65.1176Z" fill="#263238"/>
<path d="M160.415 84.387C160.879 86.5536 161.185 88.6834 161.445 90.8592C161.719 93.0435 161.874 95.2409 161.909 97.4418C161.909 97.5522 161.909 97.7822 161.909 97.9846C161.909 98.187 161.876 98.3526 161.853 98.5228C161.797 98.8586 161.737 99.1714 161.658 99.4428C161.51 100.032 161.333 100.579 161.148 101.117C160.777 102.189 160.336 103.206 159.89 104.208C158.983 106.197 157.975 108.139 156.87 110.027L155.125 109.222L156.16 106.196C156.508 105.193 156.842 104.181 157.153 103.173C157.464 102.166 157.765 101.168 158.025 100.183C158.15 99.6912 158.257 99.2036 158.331 98.7436C158.368 98.5136 158.396 98.2836 158.415 98.0996C158.415 98.003 158.415 97.9156 158.415 97.8374L158.392 97.5752C158.308 96.5448 158.187 95.5098 158.062 94.4702L157.626 91.3422C157.306 89.263 156.949 87.1562 156.591 85.1L160.415 84.387Z" fill="#AD6359"/>
<path d="M158.642 80.0032C160.187 80.4632 162.043 85.744 162.043 85.744L156.043 89.9944C156.043 89.9944 153.858 85.5922 154.507 83.6096C155.185 81.5488 156.874 79.4696 158.642 80.0032Z" fill="#263238"/>
<path d="M141.775 187.846C141.448 187.878 141.12 187.797 140.847 187.616C140.786 187.562 140.738 187.494 140.71 187.418C140.682 187.341 140.673 187.259 140.685 187.179C140.687 187.13 140.702 187.083 140.728 187.042C140.754 187.001 140.79 186.967 140.833 186.944C141.297 186.691 142.815 187.455 142.986 187.547C143.003 187.555 143.016 187.569 143.025 187.585C143.033 187.602 143.036 187.62 143.033 187.639C143.03 187.656 143.022 187.673 143.01 187.686C142.997 187.7 142.981 187.709 142.963 187.712C142.572 187.793 142.175 187.838 141.775 187.846V187.846ZM141.098 187.068C141.04 187.065 140.983 187.076 140.931 187.1C140.913 187.11 140.898 187.123 140.887 187.14C140.876 187.157 140.871 187.177 140.87 187.197C140.863 187.249 140.869 187.302 140.887 187.352C140.904 187.401 140.934 187.446 140.973 187.482C141.205 187.689 141.831 187.721 142.671 187.583C142.18 187.323 141.648 187.149 141.098 187.068V187.068Z" fill="#FBC02D"/>
<path d="M142.954 187.712H142.912C142.448 187.505 141.562 186.696 141.636 186.268C141.636 186.167 141.724 186.042 141.97 186.015C142.06 186.006 142.151 186.015 142.237 186.042C142.323 186.069 142.403 186.113 142.471 186.171C142.935 186.567 143.038 187.579 143.038 187.62C143.04 187.636 143.038 187.652 143.031 187.667C143.025 187.682 143.014 187.694 143 187.703C142.986 187.71 142.97 187.713 142.954 187.712V187.712ZM142.049 186.185H141.984C141.822 186.185 141.813 186.268 141.808 186.286C141.766 186.544 142.374 187.183 142.833 187.459C142.803 187.035 142.641 186.63 142.369 186.3C142.281 186.223 142.167 186.182 142.049 186.185V186.185Z" fill="#FBC02D"/>
<path d="M147.552 66.861L146.86 66.5298C146.86 66.5298 147.148 67.16 147.552 66.861Z" fill="#263238"/>
<path d="M156.136 101.945L156.53 103.325C156.586 103.436 156.456 103.541 156.28 103.541H140.397C140.258 103.541 140.147 103.472 140.137 103.39L139.998 102.01C139.998 101.913 140.109 101.835 140.258 101.835H155.904C155.949 101.834 155.993 101.843 156.033 101.862C156.074 101.882 156.109 101.91 156.136 101.945V101.945Z" fill="#FBC02D"/>
<path d="M154.048 103.675H154.465C154.549 103.675 154.609 103.633 154.605 103.583L154.41 101.803C154.41 101.752 154.331 101.706 154.247 101.706H153.83C153.746 101.706 153.681 101.752 153.686 101.803L153.885 103.583C153.881 103.633 153.955 103.675 154.048 103.675Z" fill="#FBC02D"/>
<g opacity="0.3">
<path opacity="0.3" d="M154.048 103.675H154.465C154.549 103.675 154.609 103.633 154.605 103.583L154.41 101.803C154.41 101.752 154.331 101.706 154.247 101.706H153.83C153.746 101.706 153.681 101.752 153.686 101.803L153.885 103.583C153.881 103.633 153.955 103.675 154.048 103.675Z" fill="white"/>
</g>
<path d="M141.576 103.675H141.994C142.077 103.675 142.142 103.633 142.137 103.583L141.938 101.803C141.938 101.752 141.859 101.706 141.775 101.706H141.358C141.274 101.706 141.209 101.752 141.219 101.803L141.414 103.583C141.418 103.633 141.492 103.675 141.576 103.675Z" fill="#FBC02D"/>
<path opacity="0.3" d="M141.576 103.675H141.994C142.077 103.675 142.142 103.633 142.137 103.583L141.938 101.803C141.938 101.752 141.859 101.706 141.775 101.706H141.358C141.274 101.706 141.209 101.752 141.219 101.803L141.414 103.583C141.418 103.633 141.492 103.675 141.576 103.675Z" fill="white"/>
<path d="M147.807 103.675H148.225C148.309 103.675 148.373 103.633 148.364 103.583L148.169 101.803C148.169 101.752 148.09 101.706 148.007 101.706H147.589C147.506 101.706 147.441 101.752 147.45 101.803L147.645 103.583C147.65 103.633 147.724 103.675 147.807 103.675Z" fill="#FBC02D"/>
<path opacity="0.3" d="M147.807 103.675H148.225C148.309 103.675 148.373 103.633 148.364 103.583L148.169 101.803C148.169 101.752 148.09 101.706 148.007 101.706H147.589C147.506 101.706 147.441 101.752 147.45 101.803L147.645 103.583C147.65 103.633 147.724 103.675 147.807 103.675Z" fill="white"/>
<path d="M155.194 108.882L152.248 111.716L156.09 112.097C156.09 112.097 157.482 110.106 156.753 108.716L155.194 108.882Z" fill="#9C4C42"/>
<path d="M151.812 114.853L155.05 115L156.09 112.097L152.248 111.716L151.812 114.853Z" fill="#9C4C42"/>
<path d="M76.6991 188.191C77.065 188.233 77.434 188.143 77.7385 187.938C77.7808 187.891 77.8078 187.832 77.8161 187.77C77.8244 187.708 77.8135 187.644 77.7849 187.588C77.7639 187.542 77.7325 187.5 77.6931 187.468C77.6537 187.435 77.6074 187.412 77.5575 187.399C77.01 187.248 75.7015 187.919 75.6644 187.951C75.6486 187.959 75.6353 187.97 75.6262 187.985C75.6171 188 75.6127 188.017 75.6134 188.034C75.6141 188.05 75.6199 188.064 75.63 188.076C75.6401 188.088 75.6538 188.096 75.669 188.099C76.009 188.159 76.3537 188.19 76.6991 188.191V188.191ZM77.3394 187.537C77.3902 187.53 77.4418 187.53 77.4926 187.537C77.5229 187.543 77.5514 187.557 77.5756 187.576C77.5998 187.595 77.6191 187.62 77.6318 187.648C77.6735 187.749 77.6318 187.8 77.6318 187.827C77.4415 188.043 76.5785 188.048 75.9567 187.961C76.389 187.74 76.8571 187.597 77.3394 187.537V187.537Z" fill="#FBC02D"/>
<path d="M75.6832 188.099H75.7203C76.1564 187.915 77.0798 187.179 77.0752 186.801C77.0752 186.709 77.0241 186.599 76.806 186.576C76.6396 186.565 76.4747 186.614 76.342 186.714C75.9845 187.073 75.7354 187.524 75.6228 188.016C75.6182 188.029 75.6179 188.043 75.6221 188.056C75.6263 188.07 75.6347 188.081 75.646 188.089C75.6572 188.096 75.6701 188.099 75.6832 188.099V188.099ZM76.7179 186.719H76.7689C76.9081 186.719 76.9128 186.788 76.9128 186.806C76.9128 187.036 76.2771 187.611 75.8177 187.859C75.9206 187.465 76.129 187.106 76.4209 186.82C76.5077 186.759 76.6116 186.727 76.7179 186.728V186.719Z" fill="#FBC02D"/>
<path d="M71.9473 188.02H75.3577L76.8564 180.191H73.446L71.9473 188.02Z" fill="#B55B52"/>
<path d="M75.3903 187.629H71.6783C71.6074 187.632 71.5388 187.655 71.481 187.696C71.4233 187.737 71.3789 187.794 71.3535 187.859L70.2353 190.863C70.204 190.928 70.1903 191 70.1954 191.072C70.2005 191.144 70.2243 191.214 70.2644 191.274C70.3046 191.334 70.3597 191.383 70.4245 191.416C70.4893 191.449 70.5616 191.464 70.6343 191.461C71.9845 191.461 73.9333 191.365 75.6223 191.365C77.5943 191.365 77.4133 191.47 79.7287 191.47C81.1207 191.47 81.7239 190.067 81.1578 189.939C78.578 189.364 78.2764 189.299 76.1837 187.892C75.9526 187.726 75.6756 187.634 75.3903 187.629Z" fill="#263238"/>
<path opacity="0.2" d="M76.8572 180.196L76.0823 184.23H72.6719L73.4468 180.196H76.8572Z" fill="black"/>
<path d="M77.1117 103.707L79.3436 106.03L75.7429 107.277C75.7429 107.277 74.4344 105.381 75.4413 104.084L77.1117 103.707Z" fill="#B55B52"/>
<path d="M80.012 109.278L76.4484 109.793L75.7432 107.277L79.3438 106.03L80.012 109.278Z" fill="#B55B52"/>
<path d="M63.7349 122.986L81.1257 123.74C81.5343 123.746 81.9326 123.612 82.2531 123.361C82.5736 123.109 82.7965 122.756 82.8842 122.36L84.9629 111.826C85.0061 111.648 85.0082 111.462 84.9691 111.282C84.93 111.103 84.8508 110.935 84.7371 110.79C84.6235 110.645 84.4785 110.527 84.3127 110.445C84.147 110.364 83.9648 110.32 83.7797 110.317L66.389 109.558C65.9811 109.553 65.5839 109.687 65.2644 109.939C64.9449 110.19 64.7226 110.543 64.6351 110.938L62.5517 121.472C62.5078 121.651 62.505 121.837 62.5437 122.017C62.5824 122.197 62.6616 122.366 62.7753 122.512C62.889 122.657 63.0344 122.775 63.2005 122.857C63.3667 122.939 63.5493 122.983 63.7349 122.986V122.986Z" fill="#263238"/>
<path d="M64.9279 126.224L86.4111 127.144C86.8984 127.162 87.3742 126.995 87.7403 126.675C88.1064 126.356 88.3348 125.91 88.3785 125.428L89.5153 112.355C89.5383 112.123 89.5129 111.888 89.4408 111.666C89.3687 111.444 89.2514 111.239 89.0962 111.063C88.9409 110.888 88.751 110.746 88.5382 110.646C88.3253 110.546 88.0941 110.491 87.8588 110.483L66.3802 109.563C65.8931 109.547 65.4179 109.715 65.0516 110.034C64.6852 110.352 64.4552 110.798 64.4082 111.279L63.2714 124.352C63.2491 124.584 63.275 124.818 63.3473 125.04C63.4197 125.262 63.537 125.467 63.6921 125.642C63.8473 125.818 64.0369 125.96 64.2494 126.06C64.4619 126.16 64.6928 126.216 64.9279 126.224V126.224Z" fill="#FBC02D"/>
<path opacity="0.2" d="M64.9279 126.224L86.4111 127.144C86.8984 127.162 87.3742 126.995 87.7403 126.675C88.1064 126.356 88.3348 125.91 88.3785 125.428L89.5153 112.355C89.5383 112.123 89.5129 111.888 89.4408 111.666C89.3687 111.444 89.2514 111.239 89.0962 111.063C88.9409 110.888 88.751 110.746 88.5382 110.646C88.3253 110.546 88.0941 110.491 87.8588 110.483L66.3802 109.563C65.8931 109.547 65.4179 109.715 65.0516 110.034C64.6852 110.352 64.4552 110.798 64.4082 111.279L63.2714 124.352C63.2491 124.584 63.275 124.818 63.3473 125.04C63.4197 125.262 63.537 125.467 63.6921 125.642C63.8473 125.818 64.0369 125.96 64.2494 126.06C64.4619 126.16 64.6928 126.216 64.9279 126.224V126.224Z" fill="black"/>
<path d="M80.6893 113.947H80.6336L74.3975 113.675C74.235 113.67 74.0753 113.631 73.9284 113.562C73.7814 113.493 73.6503 113.395 73.5429 113.274C73.4356 113.153 73.3543 113.012 73.3042 112.858C73.2541 112.705 73.2361 112.543 73.2514 112.383L73.4973 109.563C73.5579 108.986 73.8358 108.454 74.2754 108.072C74.715 107.69 75.2839 107.486 75.8683 107.502L80.0443 107.681C80.3461 107.693 80.6423 107.766 80.9149 107.895C81.1875 108.024 81.4307 108.206 81.63 108.431C81.8292 108.656 81.9801 108.919 82.0737 109.204C82.1672 109.488 82.2014 109.789 82.1741 110.087L81.9374 112.82C81.9065 113.127 81.7619 113.412 81.5314 113.62C81.301 113.829 81.001 113.945 80.6893 113.947V113.947ZM74.6573 112.3L80.5547 112.557L80.7821 109.963C80.795 109.849 80.784 109.735 80.7499 109.625C80.7157 109.516 80.6592 109.415 80.5838 109.329C80.5084 109.242 80.4158 109.172 80.3117 109.123C80.2077 109.074 80.0946 109.047 79.9794 109.043L75.8034 108.859C75.5761 108.857 75.3561 108.938 75.185 109.087C75.014 109.235 74.9038 109.44 74.8754 109.664L74.6573 112.3Z" fill="#FBC02D"/>
<path d="M88.7076 127.259L67.229 126.339C66.7382 126.311 66.2758 126.101 65.9324 125.753C65.589 125.404 65.3896 124.94 65.373 124.453L65.0854 111.32C65.0759 111.088 65.1155 110.857 65.2017 110.641C65.2878 110.426 65.4186 110.23 65.5856 110.068C65.7526 109.905 65.9521 109.779 66.1712 109.698C66.3903 109.616 66.6242 109.581 66.8578 109.595L88.341 110.515C88.8322 110.542 89.2953 110.751 89.6388 111.1C89.9824 111.449 90.1816 111.914 90.197 112.401L90.4801 125.534C90.4888 125.766 90.4487 125.997 90.3623 126.212C90.2759 126.427 90.1451 126.622 89.9783 126.785C89.8114 126.947 89.6122 127.073 89.3934 127.155C89.1746 127.237 88.941 127.272 88.7076 127.259Z" fill="#FBC02D"/>
<path d="M82.3462 77.9792C82.1189 78.4392 81.8498 78.9636 81.6085 79.465C81.3672 79.9664 81.1445 80.5 80.8893 81.0198C80.4253 82.064 79.9613 83.1128 79.5622 84.1662C79.1632 85.2196 78.792 86.2822 78.4626 87.3356C78.3094 87.8646 78.1517 88.389 78.0357 88.9088C77.9661 89.171 77.9058 89.4332 77.8594 89.6862L77.7851 90.0726C77.7573 90.206 77.7294 90.3394 77.7201 90.4314C77.7201 90.6338 77.6645 90.8178 77.6552 91.0892C77.6459 91.3606 77.6227 91.5814 77.6227 91.862C77.6227 92.4002 77.6227 92.966 77.6227 93.5318C77.6459 94.6772 77.7155 95.8318 77.7851 97.0186C77.9197 99.3692 78.1192 101.757 78.3048 104.112L74.0546 104.793C73.4792 102.396 73.0245 100.022 72.6161 97.589C72.4213 96.3746 72.2542 95.151 72.115 93.909C72.0501 93.2742 71.9851 92.644 71.9526 91.977C71.9248 91.6596 71.9202 91.3008 71.9155 90.9512C71.9109 90.6016 71.9155 90.206 71.9573 89.8104C71.9665 89.6302 71.9851 89.4506 72.0129 89.2722L72.0779 88.7662C72.115 88.4258 72.1661 88.0946 72.2264 87.7726C72.3378 87.1102 72.4769 86.4708 72.6161 85.8314C72.9177 84.5664 73.2611 83.3198 73.6694 82.1146C74.0778 80.9094 74.5093 79.7134 74.9918 78.545C75.2331 77.9608 75.4558 77.3812 75.7435 76.8016C76.0312 76.222 76.2585 75.67 76.5787 75.0352L82.3462 77.9792Z" fill="#FBC02D"/>
<path d="M91.6444 102.06C91.6444 102.06 88.3639 127.328 86.4661 137.632C84.4895 148.35 77.4877 183.448 77.4877 183.448H71.6924C71.6924 183.448 74.6341 148.976 75.938 138.451C77.3625 126.951 79.65 102.06 79.65 102.06H91.6444Z" fill="#263238"/>
<path d="M78.9172 181.166C78.9451 181.166 78.2398 183.545 78.2398 183.545H71.2148L71.3401 181.424L78.9172 181.166Z" fill="#FBC02D"/>
<path d="M94.4375 60.099C94.4375 60.3842 94.5906 60.6188 94.7809 60.6188C94.9711 60.6188 95.1196 60.3842 95.1196 60.099C95.1196 59.8138 94.9665 59.5838 94.7809 59.5838C94.5953 59.5838 94.4375 59.8 94.4375 60.099Z" fill="#263238"/>
<path d="M94.5635 60.6188C94.912 61.4941 95.3804 62.3175 95.9555 63.066C95.7567 63.2074 95.5289 63.3038 95.2884 63.3483C95.0478 63.3928 94.8004 63.3844 94.5635 63.3236V60.6188Z" fill="#A02724"/>
<path d="M93.4169 58.512C93.4514 58.5122 93.4852 58.5026 93.5143 58.4844C93.683 58.3548 93.8806 58.2671 94.0905 58.2287C94.3004 58.1903 94.5165 58.2022 94.7207 58.2636C94.7626 58.2787 94.8088 58.2771 94.8495 58.2591C94.8902 58.2411 94.9222 58.208 94.9388 58.167C94.947 58.1465 94.951 58.1246 94.9505 58.1025C94.95 58.0805 94.9451 58.0587 94.936 58.0386C94.9269 58.0185 94.9139 58.0003 94.8976 57.9852C94.8814 57.9702 94.8622 57.9585 94.8414 57.9508C94.5848 57.8688 94.312 57.8494 94.0463 57.8942C93.7805 57.9391 93.5296 58.0469 93.3148 58.2084C93.279 58.235 93.2551 58.2744 93.2482 58.3182C93.2412 58.3621 93.2518 58.4068 93.2777 58.443C93.2935 58.4649 93.3144 58.4826 93.3387 58.4946C93.363 58.5066 93.3898 58.5126 93.4169 58.512V58.512Z" fill="#263238"/>
<path d="M85.3015 63.2592C85.7655 65.734 86.2759 70.265 84.5312 71.9118C84.5312 71.9118 85.2133 74.4188 89.8487 74.4188C94.9527 74.4188 92.2801 71.9118 92.2801 71.9118C89.4961 71.254 89.5749 69.2116 90.0575 67.2888L85.3015 63.2592Z" fill="#B55B52"/>
<path d="M83.8637 72.772C83.5018 71.9808 83.0981 71.07 83.9287 70.7848C84.8567 70.472 89.854 70.1546 91.58 70.7434C91.8077 70.806 92.0207 70.9127 92.2065 71.0574C92.3923 71.2021 92.5472 71.3819 92.6625 71.5864C92.7777 71.7909 92.8509 72.0161 92.8777 72.2488C92.9046 72.4815 92.8846 72.7172 92.8189 72.9422L83.8637 72.772Z" fill="#263238"/>
<path d="M77.8171 72.8824C74.8335 74.2256 72.9775 84.41 72.9775 84.41L78.8286 86.25C79.9781 83.5607 80.9333 80.7937 81.6868 77.97C82.7494 73.7196 80.8702 71.5116 77.8171 72.8824Z" fill="#FBC02D"/>
<path d="M114.144 98.0996H117.745L117.113 102.368C117.113 102.368 114.292 102.267 113.012 100.16L114.144 98.0996Z" fill="#B55B52"/>
<path d="M121.132 99.5854L119.322 102.884L117.095 102.378L117.726 98.1088L121.132 99.5854Z" fill="#B55B52"/>
<path d="M84.8096 59.4918C85.0277 63.0062 84.9767 65.0762 86.7677 66.8794C89.4589 69.5934 93.8344 67.9834 94.6789 64.4736C95.4445 61.318 94.9573 56.1016 91.4866 54.7032C90.7232 54.3914 89.8921 54.2781 89.0722 54.3743C88.2522 54.4704 87.4707 54.7727 86.8017 55.2524C86.1328 55.7322 85.5986 56.3735 85.25 57.1155C84.9013 57.8575 84.7497 58.6755 84.8096 59.4918V59.4918Z" fill="#B55B52"/>
<path d="M84.4017 64.2712C84.4017 64.2712 81.1908 59.4964 81.8868 56.3822C82.5225 53.5348 89.0046 52.5182 91.6958 52.8034C94.5541 53.1116 95.6677 54.3306 94.0993 56.787C93.1738 57.2219 92.2007 57.5491 91.1993 57.7622C91.1993 57.7622 92.7909 59.6988 92.8048 60.9822C92.3408 61.2214 90.907 61.7918 90.907 61.7918C90.907 61.7918 88.8747 66.7644 88.8144 66.7552C88.0302 66.6632 86.216 66.6356 85.5664 66.8794C85.1061 66.0434 84.7166 65.171 84.4017 64.2712V64.2712Z" fill="#263238"/>
<path d="M89.5009 61.2766C89.7349 62.1173 90.2401 62.8588 90.9393 63.388C91.8673 64.078 92.5586 63.4248 92.489 62.3898C92.4287 61.4698 91.8719 59.984 90.8511 59.6942C89.8303 59.4044 89.2318 60.26 89.5009 61.2766Z" fill="#B55B52"/>
<path opacity="0.3" d="M89.1858 111.504C84.6247 112.553 85.4738 128.91 86.3508 138.235C86.3925 138.023 86.425 137.825 86.4621 137.632C87.5943 131.496 89.2137 120.06 90.3412 111.808C89.9901 111.606 89.5913 111.502 89.1858 111.504V111.504Z" fill="black"/>
<path d="M93.5983 188.191C94.0345 188.191 94.4567 188.131 94.6006 187.938C94.6376 187.887 94.6575 187.826 94.6575 187.763C94.6575 187.7 94.6376 187.639 94.6006 187.588C94.5731 187.541 94.5364 187.5 94.4925 187.468C94.4486 187.435 94.3986 187.412 94.3454 187.399C93.7793 187.248 92.5868 187.919 92.5358 187.951C92.5217 187.96 92.5105 187.972 92.5039 187.987C92.4972 188.002 92.4954 188.018 92.4986 188.034C92.5019 188.05 92.5098 188.065 92.5214 188.076C92.5329 188.087 92.5476 188.095 92.5636 188.099C92.9053 188.158 93.2514 188.189 93.5983 188.191ZM94.1412 187.537C94.192 187.53 94.2435 187.53 94.2943 187.537C94.327 187.544 94.3579 187.557 94.3851 187.576C94.4122 187.595 94.4351 187.619 94.4521 187.648C94.5124 187.749 94.4892 187.8 94.4521 187.827C94.2943 188.043 93.4313 188.048 92.7956 187.961C93.2121 187.734 93.6692 187.59 94.1412 187.537V187.537Z" fill="#FBC02D"/>
<path d="M92.5678 188.099H92.6003C93.0132 187.915 93.8299 187.179 93.7649 186.801C93.7649 186.709 93.686 186.599 93.4633 186.576C93.3806 186.566 93.2966 186.573 93.2167 186.597C93.1369 186.621 93.0628 186.66 92.9993 186.714C92.5632 187.068 92.475 187.979 92.4704 188.016C92.4686 188.03 92.4706 188.044 92.4763 188.057C92.4821 188.07 92.4912 188.081 92.5028 188.089C92.5225 188.101 92.5458 188.104 92.5678 188.099V188.099ZM93.3984 186.719H93.4494C93.5932 186.719 93.6025 186.788 93.6072 186.806C93.6443 187.036 93.0875 187.611 92.6792 187.859C92.7217 187.474 92.8838 187.11 93.1432 186.82C93.2159 186.762 93.3055 186.73 93.3984 186.728V186.719Z" fill="#FBC02D"/>
<path d="M88.8184 188.02H92.2288L92.5675 180.191H89.1617L88.8184 188.02Z" fill="#B55B52"/>
<path d="M92.2063 187.629H88.4943C88.4266 187.63 88.361 187.653 88.308 187.694C88.2549 187.736 88.2176 187.794 88.202 187.859L87.5292 190.863C87.5131 190.936 87.5137 191.011 87.5311 191.083C87.5484 191.155 87.582 191.223 87.6293 191.28C87.6766 191.338 87.7364 191.384 87.8042 191.415C87.8721 191.447 87.9462 191.462 88.021 191.461C89.362 191.461 91.3015 191.365 92.9905 191.365C94.9671 191.365 96.67 191.47 98.9854 191.47C100.377 191.47 100.772 190.067 100.187 189.939C97.5191 189.364 95.343 189.299 93.0369 187.892C92.7902 187.729 92.5025 187.638 92.2063 187.629V187.629Z" fill="#263238"/>
<path opacity="0.2" d="M92.5682 180.196L92.3918 184.23H88.9814L89.1578 180.196H92.5682Z" fill="black"/>
<path d="M97.7276 102.06C97.7276 102.06 98.1916 127.328 97.825 137.632C97.4399 148.35 93.649 183.448 93.649 183.448H87.8907C87.8907 183.448 87.6773 148.976 87.4267 138.451C87.1437 126.951 85.7471 102.06 85.7471 102.06H97.7276Z" fill="#263238"/>
<path d="M94.7761 181.166C94.7993 181.166 94.4467 183.545 94.4467 183.545H87.4263L87.2314 181.424L94.7761 181.166Z" fill="#FBC02D"/>
<path d="M97.5233 72.8502C97.5233 72.8502 101.616 79.0326 98.1868 104.181H78.9308C78.8055 101.421 81.1302 85.7486 78.4297 72.6754C80.4448 72.2907 82.4829 72.0357 84.5313 71.9118C87.1121 71.7645 89.6993 71.7645 92.2801 71.9118C94.0498 72.0886 95.8029 72.4023 97.5233 72.8502V72.8502Z" fill="#FBC02D"/>
<path opacity="0.2" d="M99.5553 85.7164L95.5186 79.0832C95.5186 79.0832 97.0358 88.4856 99.3605 92.7268C99.5182 90.0726 99.5739 87.745 99.5553 85.7164Z" fill="black"/>
<path d="M101.278 77.6894C101.941 79.7916 102.67 81.9444 103.417 84.0512C104.164 86.158 104.943 88.251 105.797 90.2612L106.122 91.0064C106.15 91.0617 106.175 91.1185 106.196 91.1766C106.215 91.2193 106.237 91.2608 106.261 91.3008C106.467 91.6054 106.707 91.8862 106.976 92.138C107.708 92.8139 108.495 93.4293 109.328 93.978C110.2 94.576 111.124 95.1556 112.075 95.703C113.026 96.2504 114.01 96.8116 114.947 97.2946L113.142 101.471C110.858 100.64 108.642 99.6378 106.512 98.4722C105.372 97.8415 104.285 97.12 103.264 96.3148C102.655 95.8282 102.102 95.2759 101.616 94.668C101.477 94.4702 101.343 94.2954 101.208 94.0746C101.073 93.8538 100.925 93.5778 100.883 93.4858L100.475 92.6808C99.4124 90.5372 98.4612 88.3936 97.5842 86.2408C96.7072 84.088 95.8906 81.9214 95.1064 79.6812L101.278 77.6894Z" fill="#FBC02D"/>
<path d="M92.9762 74.3774C91.7837 77.3858 99.036 89.4976 99.036 89.4976L103.755 85.0218C103.755 85.0218 102.725 81.2176 101.351 76.636C99.9965 72.1326 94.113 71.5024 92.9762 74.3774Z" fill="#FBC02D"/>
</svg>
