<svg width="127" height="43" viewBox="0 0 127 43" fill="none" xmlns="http://www.w3.org/2000/svg">
<g clip-path="url(#clip0_121_102)">
<path d="M26.9229 9.47575H32.2804V12.5626C32.863 11.3422 33.6328 10.4192 34.5899 9.78341C35.5223 9.1594 36.6254 8.83029 37.7524 8.83993C38.5638 8.83993 39.4065 9.05529 40.2907 9.47575L38.3454 14.7777C37.6172 14.4187 37.0138 14.2342 36.5352 14.2342C35.5782 14.2342 34.7667 14.8187 34.1009 15.998C33.4351 17.1774 33.1022 19.4745 33.1022 22.8998L33.123 24.0996V34.0164H26.9229V9.47575Z" fill="white"/>
<path d="M56.9463 8.83992C59.2715 8.83191 61.5576 9.42981 63.573 10.5731C65.5923 11.6805 67.2653 13.312 68.4104 15.2904C69.5572 17.2442 70.1568 19.4632 70.1477 21.7204C70.1571 24.0017 69.5541 26.2449 68.4 28.2222C67.276 30.1983 65.6246 31.8332 63.625 32.9499C61.6068 34.0882 59.3875 34.6557 56.9671 34.6522C53.3989 34.6522 50.3508 33.4011 47.8228 30.8988C45.2949 28.3966 44.0327 25.3542 44.0361 21.7717C44.0361 17.9363 45.4614 14.7401 48.3118 12.1831C50.8189 9.95774 53.6971 8.84334 56.9463 8.83992ZM57.0503 14.6341C55.105 14.6341 53.489 15.3007 52.2025 16.6339C50.916 17.967 50.271 19.6694 50.2675 21.7409C50.2675 23.874 50.9056 25.6037 52.1817 26.9301C53.4578 28.2564 55.0737 28.9196 57.0295 28.9196C58.9853 28.9196 60.6186 28.253 61.9085 26.9096C63.1985 25.5661 63.8539 23.8535 63.8539 21.7409C63.8539 19.6284 63.2193 17.926 61.9397 16.6134C60.6602 15.3007 59.0373 14.6341 57.0503 14.6341Z" fill="white"/>
<path d="M76.4517 0H82.7039V34.0164H76.4517V0Z" fill="white"/>
<path d="M89.5596 0H95.8117V34.0164H89.5596V0Z" fill="white"/>
<path d="M100.597 9.47583H106.985L113.455 24.8791L120.592 9.47583H127L111.406 43H104.956L110.074 32.1911L100.597 9.47583Z" fill="white"/>
<path d="M19.6721 19.3003C18.7254 17.8748 17.2309 16.692 15.1884 15.752C16.4056 14.8495 17.2898 13.8855 17.8308 12.8498C18.3815 11.7833 18.6601 10.6006 18.6422 9.40402C18.6422 7.46579 18.0458 5.78052 16.8529 4.34822C15.6565 2.92274 14.0545 1.93824 12.0363 1.41523C10.6111 1.02553 8.37443 0.830688 5.29514 0.830688H0V6.85048H8.06234C9.52916 6.85048 10.6319 7.15813 11.3497 7.76319C12.0675 8.36825 12.4316 9.19891 12.4316 10.2347C12.4316 11.3525 12.0571 12.2242 11.2977 12.8703C10.5383 13.5163 9.38352 13.8445 7.81267 13.8445H0V34.0165H9.43553C12.1507 34.0165 14.2799 33.637 15.823 32.8781C17.3661 32.1193 18.6249 30.9741 19.5993 29.4427C20.5743 27.9177 21.0835 26.1483 21.0661 24.3458C21.0869 22.3973 20.6222 20.7155 19.6721 19.3003ZM13.4095 27.0019C12.4836 27.6685 10.6908 28.0001 8.03113 27.9967H6.42906V19.4951H7.76065C10.2886 19.4951 12.0883 19.9053 13.1806 20.736C14.2729 21.5667 14.8139 22.6947 14.8139 24.1202C14.7931 25.3816 14.3354 26.3456 13.4095 27.0019Z" fill="white"/>
</g>
<defs>
<clipPath id="clip0_121_102">
<rect width="127" height="43" fill="white"/>
</clipPath>
</defs>
</svg>
