<?xml version="1.0" encoding="utf-8"?>
<!-- Generator: Adobe Illustrator 19.2.0, SVG Export Plug-In . SVG Version: 6.00 Build 0)  -->
<svg version="1.1" id="Layer_1" xmlns="http://www.w3.org/2000/svg" xmlns:xlink="http://www.w3.org/1999/xlink" x="0px" y="0px"
	 viewBox="0 0 2000 1479.9" style="enable-background:new 0 0 2000 1479.9;" xml:space="preserve">
<style type="text/css">
	.st0{fill:#58595B;}
</style>
<path d="M648.4,622.7h51.5v30.1c5.6-11.9,13-20.9,22.2-27.1c9.2-6.2,19.4-9.2,30.4-9.2c7.8,0,15.9,2.1,24.4,6.2l-18.7,51.7
	c-7-3.5-12.8-5.3-17.4-5.3c-9.2,0-17,5.7-23.4,17.2c-6.4,11.4-9.6,33.9-9.6,67.3l0.2,11.7V862h-59.6V622.7z"/>
<path d="M937,616.5c22.6,0,43.8,5.6,63.7,16.9c19.9,11.3,35.4,26.6,46.5,46c11.1,19.4,16.7,40.3,16.7,62.7
	c0,22.6-5.6,43.7-16.8,63.4c-11.2,19.7-26.5,35-45.9,46.1c-19.4,11.1-40.7,16.6-64,16.6c-34.3,0-63.6-12.2-87.9-36.6
	c-24.3-24.4-36.4-54.1-36.4-89c0-37.4,13.7-68.6,41.1-93.5C878.1,627.4,905.8,616.5,937,616.5z M938,673c-18.7,0-34.2,6.5-46.6,19.5
	c-12.4,13-18.6,29.6-18.6,49.8c0,20.8,6.1,37.7,18.4,50.6c12.3,12.9,27.8,19.4,46.6,19.4c18.8,0,34.5-6.5,46.9-19.6
	c12.5-13.1,18.7-29.8,18.7-50.4c0-20.5-6.1-37.2-18.4-50C972.8,679.5,957.1,673,938,673z"/>
<path d="M1124.5,530.3h60.1V862h-60.1V530.3z"/>
<path d="M1250.5,530.3h60.1V862h-60.1V530.3z"/>
<path d="M1356.6,622.7h61.4l62.2,150.2l68.6-150.2h61.6l-149.9,326.9h-62l49.2-105.4L1356.6,622.7z"/>
<g>
	<g>
		<g>
			<polygon class="st0" points="4309.6,1434.2 4309.6,1448.7 4752.3,1448.7 4752.3,1761.5 4309.6,1761.5 4309.6,1775.9 
				4766.8,1775.9 4766.8,1434.2 			"/>
			<polygon class="st0" points="4705.6,1761.5 3943.7,1761.5 3943.7,1448.7 4705.6,1448.7 4705.6,1434.2 3929.2,1434.2 
				3929.2,1775.9 4705.6,1775.9 			"/>
		</g>
	</g>
</g>
<g>
	<g>
		<text transform="matrix(1 0 0 1 -949.1158 1496.0015)" class="st0" style="font-family:'NexaBold'; font-size:228px;">rolly</text>
		<g>
			<path class="st0" d="M-1001.1,1407.6c15.9-7.1,22.2-19.8,22.2-33c0-34.4-25.1-49.6-58.8-49.6c-27.1,0-54.2,0-81.1,0v29.3h31.7
				h3.5h45.8c20.5,0,26.9,13.2,26.9,21c0,9.8-6.6,18.3-26.9,18.3h-45.8h-3.5h-31.7V1496c27.1,0,54,0,81.1,0c35.4,0,64-12.2,64-50.3
				C-973.8,1435-981.1,1413.7-1001.1,1407.6z M-1037.7,1466h-49.3v-44h49.3c13.2,0,32,8.1,32,23.4
				C-1005.8,1461.6-1024.6,1466-1037.7,1466z"/>
		</g>
	</g>
	<g>
		<polygon class="st0" points="-827.7,1263.4 -827.7,1277.8 -384.9,1277.8 -384.9,1590.6 -827.7,1590.6 -827.7,1605.1 
			-370.5,1605.1 -370.5,1263.4 		"/>
		<polygon class="st0" points="-431.7,1590.6 -1193.6,1590.6 -1193.6,1277.8 -431.7,1277.8 -431.7,1263.4 -1208,1263.4 
			-1208,1605.1 -431.7,1605.1 		"/>
	</g>
</g>
<path d="M578.7,718.5c-9.1-13.9-23.5-25.4-43.1-34.6c11.7-8.8,20.2-18.2,25.4-28.3c5.2-10,7.8-21.2,7.8-33.6
	c0-18.9-5.7-35.3-17.2-49.3c-11.5-13.9-26.9-23.5-46.3-28.6c-13.7-3.8-35.2-5.7-64.8-5.7h-50.9v58.7h61.6h11.8h4.1
	c14.1,0,24.7,3,31.6,8.9c6.9,5.9,10.4,14,10.4,24.1c0,10.9-3.6,19.4-10.9,25.7c-7.3,6.3-18.4,9.5-33.5,9.5h-1.7h-11.8h-61.6V862
	h90.7c26.1,0,46.6-3.7,61.4-11.1c14.8-7.4,26.9-18.6,36.3-33.5c9.4-15,14.1-31.5,14.1-49.7C592.3,748.7,587.8,732.3,578.7,718.5z
	 M518.5,793.6c-8.9,6.5-26.1,9.7-51.7,9.7h-15.4v-82.9h12.8c24.3,0,41.6,4,52.1,12.1c10.4,8.1,15.7,19.1,15.7,33
	C531.8,777.8,527.4,787.2,518.5,793.6z"/>
</svg>
